<?xml version="1.0" standalone="no"?>
<!DOCTYPE svg PUBLIC "-//W3C//DTD SVG 20010904//EN"
 "http://www.w3.org/TR/2001/REC-SVG-20010904/DTD/svg10.dtd">
<svg version="1.0" xmlns="http://www.w3.org/2000/svg"
 width="1680.000000pt" height="600.000000pt" viewBox="0 0 1680.000000 600.000000"
 preserveAspectRatio="xMidYMid meet">

<g transform="translate(0.000000,600.000000) scale(0.100000,-0.100000)"
fill="#000000" stroke="none">
<path d="M0 3000 l0 -3000 8400 0 8400 0 0 3000 0 3000 -8400 0 -8400 0 0
-3000z m5290 604 c52 -18 55 -21 58 -56 2 -21 2 -38 0 -38 -2 0 -32 9 -67 20
-35 11 -103 23 -150 27 -181 12 -307 -60 -386 -222 -37 -76 -65 -194 -65 -274
l0 -50 50 53 c141 149 419 168 587 40 156 -119 184 -421 56 -607 -77 -111
-248 -171 -418 -148 -179 25 -288 129 -340 326 -34 129 -29 408 10 558 53 205
152 325 312 378 76 25 269 21 353 -7z m974 -4 c174 -66 244 -250 153 -401 -37
-61 -110 -121 -179 -146 l-47 -17 67 -26 c167 -65 245 -166 246 -315 0 -165
-87 -274 -259 -327 -91 -29 -261 -30 -350 -4 -181 54 -270 163 -269 331 0 83
23 142 79 204 41 46 118 93 183 112 49 14 53 24 15 34 -47 11 -111 55 -158
107 -103 115 -97 280 14 381 85 76 161 98 326 93 94 -3 133 -8 179 -26z m974
16 c209 -56 311 -254 314 -611 1 -171 -13 -279 -49 -379 -31 -86 -58 -128
-114 -183 -81 -78 -214 -114 -345 -93 -234 37 -345 206 -369 561 -7 114 6 281
31 375 45 178 144 293 283 330 62 17 185 17 249 0z m3132 -12 c52 -18 55 -21
58 -56 2 -21 2 -38 0 -38 -2 0 -32 9 -67 20 -35 11 -103 23 -150 27 -181 12
-307 -60 -386 -222 -37 -76 -65 -194 -65 -274 l0 -50 50 53 c141 149 419 168
587 40 156 -119 184 -421 56 -607 -77 -111 -248 -171 -418 -148 -179 25 -288
129 -340 326 -34 129 -29 408 10 558 53 205 152 325 312 378 76 25 269 21 353
-7z m898 12 c209 -56 311 -254 314 -611 1 -171 -13 -279 -49 -379 -31 -86 -58
-128 -114 -183 -81 -78 -214 -114 -345 -93 -234 37 -345 206 -369 561 -7 114
6 281 31 375 45 178 144 293 283 330 62 17 185 17 249 0z m1050 0 c209 -56
311 -254 314 -611 1 -171 -13 -279 -49 -379 -31 -86 -58 -128 -114 -183 -81
-78 -214 -114 -345 -93 -234 37 -345 206 -369 561 -7 114 6 281 31 375 45 178
144 293 283 330 62 17 185 17 249 0z m-8228 -626 l0 -630 -40 0 -40 0 0 575
c0 316 -4 575 -8 575 -7 0 -79 -57 -284 -228 l-78 -64 0 50 0 50 186 151 c169
137 189 151 225 151 l39 0 0 -630z m4327 108 l183 -183 183 183 c100 100 186
182 191 182 6 0 20 -10 33 -22 l24 -22 -188 -188 -188 -188 188 -188 187 -187
-27 -28 -28 -27 -187 187 -188 188 -188 -188 -188 -188 -22 24 c-12 13 -22 27
-22 33 0 5 82 91 182 191 l183 183 -185 185 -184 184 24 26 c13 14 26 25 29
25 3 0 88 -82 188 -182z"/>
<path d="M4929 3107 c-108 -31 -203 -118 -229 -211 -8 -28 -11 -79 -8 -133 7
-147 73 -259 184 -314 43 -21 63 -24 159 -24 95 0 117 4 157 23 65 32 124 96
150 162 32 78 33 253 1 321 -53 116 -153 181 -287 186 -46 1 -101 -3 -127 -10z"/>
<path d="M5947 3550 c-171 -44 -243 -203 -152 -342 52 -79 194 -145 290 -135
102 10 217 77 260 151 69 118 22 250 -108 306 -40 18 -75 24 -152 26 -55 2
-117 -1 -138 -6z"/>
<path d="M5965 2971 c-174 -51 -258 -141 -257 -277 1 -154 101 -250 284 -274
87 -11 201 2 262 28 200 89 225 347 45 463 -59 37 -185 79 -237 78 -20 0 -64
-8 -97 -18z"/>
<path d="M7018 3547 c-183 -52 -268 -258 -255 -617 10 -283 87 -444 234 -494
61 -21 176 -20 238 1 64 21 138 95 171 169 49 110 58 174 58 384 0 167 -3 206
-21 272 -40 141 -98 225 -189 269 -55 26 -171 34 -236 16z"/>
<path d="M10009 3107 c-108 -31 -203 -118 -229 -211 -8 -28 -11 -79 -8 -133 7
-147 73 -259 184 -314 43 -21 63 -24 159 -24 95 0 117 4 157 23 65 32 124 96
150 162 32 78 33 253 1 321 -53 116 -153 181 -287 186 -46 1 -101 -3 -127 -10z"/>
<path d="M11048 3547 c-183 -52 -268 -258 -255 -617 10 -283 87 -444 234 -494
61 -21 176 -20 238 1 64 21 138 95 171 169 49 110 58 174 58 384 0 167 -3 206
-21 272 -40 141 -98 225 -189 269 -55 26 -171 34 -236 16z"/>
<path d="M12098 3547 c-183 -52 -268 -258 -255 -617 10 -283 87 -444 234 -494
61 -21 176 -20 238 1 64 21 138 95 171 169 49 110 58 174 58 384 0 167 -3 206
-21 272 -40 141 -98 225 -189 269 -55 26 -171 34 -236 16z"/>
</g>
</svg>
