<?xml version="1.0" standalone="no"?>
<!DOCTYPE svg PUBLIC "-//W3C//DTD SVG 20010904//EN"
 "http://www.w3.org/TR/2001/REC-SVG-20010904/DTD/svg10.dtd">
<svg version="1.0" xmlns="http://www.w3.org/2000/svg"
 width="400.000000pt" height="400.000000pt" viewBox="0 0 400.000000 400.000000"
 preserveAspectRatio="xMidYMid meet">

<g transform="translate(0.000000,400.000000) scale(0.100000,-0.100000)"
fill="#000000" stroke="none">
<path d="M0 2000 l0 -2000 2000 0 2000 0 0 2000 0 2000 -2000 0 -2000 0 0
-2000z m1070 50 l0 -110 30 0 c17 0 30 -4 30 -10 0 -5 -13 -10 -30 -10 -28 0
-30 -2 -30 -40 0 -22 -4 -40 -10 -40 -5 0 -10 18 -10 40 l0 40 -80 0 c-50 0
-80 4 -80 11 0 18 154 228 168 229 9 0 12 -29 12 -110z m261 100 c35 -19 53
-70 53 -150 0 -117 -31 -160 -114 -160 -50 0 -83 29 -99 86 -22 80 -5 182 37
214 27 22 91 27 123 10z m270 0 c35 -19 53 -70 53 -150 0 -117 -31 -160 -114
-160 -50 0 -83 29 -99 86 -22 80 -5 182 37 214 27 22 91 27 123 10z m759 -100
l0 -110 30 0 c17 0 30 -4 30 -10 0 -5 -13 -10 -30 -10 -28 0 -30 -2 -30 -40 0
-22 -4 -40 -10 -40 -5 0 -10 18 -10 40 l0 40 -80 0 c-50 0 -80 4 -80 11 0 18
154 228 168 229 9 0 12 -29 12 -110z m271 100 c35 -19 53 -70 53 -150 0 -117
-31 -160 -114 -160 -50 0 -83 29 -99 86 -22 80 -5 182 37 214 27 22 91 27 123
10z m270 0 c35 -19 53 -70 53 -150 0 -117 -31 -160 -114 -160 -50 0 -83 29
-99 86 -22 80 -5 182 37 214 27 22 91 27 123 10z m-1014 -122 l43 -42 43 42
c23 23 49 42 57 42 8 0 -8 -22 -35 -50 l-49 -50 47 -48 c26 -27 44 -51 40 -55
-4 -4 -28 14 -55 40 l-48 47 -48 -47 c-27 -26 -51 -44 -55 -40 -4 4 14 28 40
55 l47 48 -49 50 c-27 28 -43 50 -35 50 8 0 34 -19 57 -42z"/>
<path d="M1017 2088 c-13 -18 -43 -59 -66 -90 l-42 -58 71 0 70 0 0 90 c0 50
-2 90 -4 90 -3 0 -16 -15 -29 -32z"/>
<path d="M1222 2123 c-50 -50 -54 -186 -7 -241 27 -32 87 -35 116 -5 27 26 41
112 29 175 -12 61 -32 85 -77 94 -27 5 -37 2 -61 -23z"/>
<path d="M1492 2123 c-50 -50 -54 -186 -7 -241 27 -32 87 -35 116 -5 27 26 41
112 29 175 -12 61 -32 85 -77 94 -27 5 -37 2 -61 -23z"/>
<path d="M2307 2088 c-13 -18 -43 -59 -66 -90 l-42 -58 71 0 70 0 0 90 c0 50
-2 90 -4 90 -3 0 -16 -15 -29 -32z"/>
<path d="M2522 2123 c-50 -50 -54 -186 -7 -241 27 -32 87 -35 116 -5 27 26 41
112 29 175 -12 61 -32 85 -77 94 -27 5 -37 2 -61 -23z"/>
<path d="M2792 2123 c-50 -50 -54 -186 -7 -241 27 -32 87 -35 116 -5 27 26 41
112 29 175 -12 61 -32 85 -77 94 -27 5 -37 2 -61 -23z"/>
</g>
</svg>
