<?xml version="1.0" standalone="no"?>
<!DOCTYPE svg PUBLIC "-//W3C//DTD SVG 20010904//EN"
 "http://www.w3.org/TR/2001/REC-SVG-20010904/DTD/svg10.dtd">
<svg version="1.0" xmlns="http://www.w3.org/2000/svg"
 width="670.000000pt" height="420.000000pt" viewBox="0 0 670.000000 420.000000"
 preserveAspectRatio="xMidYMid meet">

<g transform="translate(0.000000,420.000000) scale(0.100000,-0.100000)"
fill="#000000" stroke="none">
<path d="M0 2100 l0 -2100 3350 0 3350 0 0 2100 0 2100 -3350 0 -3350 0 0
-2100z m1810 261 c14 -4 26 -15 28 -24 3 -15 -1 -17 -25 -10 -57 16 -136 9
-170 -15 -38 -27 -71 -91 -79 -157 l-7 -50 29 27 c37 34 74 48 130 48 121 0
189 -87 169 -218 -14 -95 -116 -156 -221 -133 -110 25 -162 147 -135 320 18
112 68 190 137 211 35 10 109 11 144 1z m853 -5 c41 -16 81 -63 98 -113 18
-50 18 -235 0 -292 -36 -124 -188 -169 -283 -83 -54 49 -71 113 -66 251 3 90
7 115 28 156 41 81 139 117 223 81z m1742 -10 c40 -26 58 -62 59 -119 1 -82
-32 -136 -154 -259 l-107 -108 134 0 c112 0 133 -2 133 -15 0 -13 -24 -15
-160 -15 -192 0 -196 4 -88 95 84 72 164 165 189 220 36 78 16 155 -46 181
-55 22 -96 18 -189 -21 -14 -6 -17 -4 -14 11 8 47 184 69 243 30z m418 10 c41
-16 81 -63 98 -113 18 -50 18 -235 0 -292 -36 -124 -188 -169 -283 -83 -54 49
-71 113 -66 251 3 90 7 115 28 156 41 81 139 117 223 81z m-2513 -7 c0 -6 -32
-75 -70 -153 -39 -77 -88 -190 -109 -251 -27 -77 -44 -111 -56 -113 -15 -3
-16 1 -11 25 16 61 100 263 152 362 30 58 54 106 54 108 0 2 -65 3 -145 3
-122 0 -145 2 -145 15 0 13 25 15 165 15 116 0 165 -3 165 -11z m1640 -174 l0
-185 50 0 c38 0 50 -4 50 -15 0 -11 -12 -15 -50 -15 l-50 0 0 -65 c0 -51 -3
-65 -15 -65 -12 0 -15 14 -15 65 l0 65 -135 0 c-115 0 -135 2 -135 15 0 27
263 385 283 385 16 0 17 -15 17 -185z m-798 -32 l78 -78 79 79 c53 52 81 74
86 66 5 -8 -21 -40 -69 -89 l-76 -76 80 -80 c63 -62 77 -82 68 -92 -9 -12 -27
1 -92 66 l-81 81 -80 -80 c-53 -53 -83 -76 -89 -70 -7 7 16 37 69 90 l80 80
-79 79 c-68 68 -87 101 -58 101 4 0 42 -35 84 -77z"/>
<path d="M1630 2128 c-19 -13 -43 -41 -54 -62 -16 -34 -17 -44 -7 -91 14 -63
48 -101 102 -115 73 -20 159 23 175 87 4 13 4 49 2 79 -4 45 -10 61 -36 87
-26 26 -40 31 -89 35 -48 3 -64 0 -93 -20z"/>
<path d="M2530 2323 c-24 -12 -43 -34 -60 -68 -22 -44 -25 -63 -25 -160 0 -95
3 -117 23 -157 29 -59 64 -82 125 -82 54 0 91 23 122 75 15 27 21 57 23 139 5
125 -7 179 -51 227 -41 44 -102 54 -157 26z"/>
<path d="M4690 2323 c-24 -12 -43 -34 -60 -68 -22 -44 -25 -63 -25 -160 0 -95
3 -117 23 -157 29 -59 64 -82 125 -82 54 0 91 23 122 75 15 27 21 57 23 139 5
125 -7 179 -51 227 -41 44 -102 54 -157 26z"/>
<path d="M3889 2270 c-15 -19 -65 -89 -113 -155 l-87 -120 112 -3 c61 -1 113
-1 116 1 2 2 2 73 1 158 l-3 154 -26 -35z"/>
</g>
</svg>
