<?xml version="1.0" standalone="no"?>
<!DOCTYPE svg PUBLIC "-//W3C//DTD SVG 20010904//EN"
 "http://www.w3.org/TR/2001/REC-SVG-20010904/DTD/svg10.dtd">
<svg version="1.0" xmlns="http://www.w3.org/2000/svg"
 width="760.000000pt" height="760.000000pt" viewBox="0 0 760.000000 760.000000"
 preserveAspectRatio="xMidYMid meet">

<g transform="translate(0.000000,760.000000) scale(0.100000,-0.100000)"
fill="#000000" stroke="none">
<path d="M0 3800 l0 -3800 3800 0 3800 0 0 3800 0 3800 -3800 0 -3800 0 0
-3800z m2115 289 c4 -5 -25 -72 -64 -148 -66 -130 -144 -314 -172 -408 -9 -31
-18 -43 -31 -43 -10 0 -18 4 -18 9 0 31 93 263 158 393 42 84 78 156 80 161 2
4 -73 7 -167 7 -136 0 -171 3 -171 13 0 8 3 17 7 20 11 12 371 8 378 -4z m425
5 c29 -6 50 -28 38 -40 -3 -2 -27 1 -55 7 -141 33 -240 -46 -259 -205 l-7 -57
35 35 c77 77 221 75 292 -5 57 -62 67 -166 25 -251 -55 -109 -229 -131 -320
-39 -47 46 -69 119 -69 222 0 169 51 284 145 325 32 14 122 18 175 8z m490
-14 c78 -40 112 -124 113 -280 1 -198 -52 -292 -176 -315 -58 -11 -133 12
-172 52 -44 45 -65 107 -72 215 -12 172 37 301 127 337 44 17 137 13 180 -9z
m1535 9 c4 -5 -25 -72 -64 -148 -66 -130 -144 -314 -172 -408 -9 -31 -18 -43
-31 -43 -10 0 -18 4 -18 9 0 31 93 263 158 393 42 84 78 156 80 161 2 4 -73 7
-167 7 -136 0 -171 3 -171 13 0 8 3 17 7 20 11 12 371 8 378 -4z m435 5 c29
-6 50 -28 38 -40 -3 -2 -27 1 -55 7 -141 33 -240 -46 -259 -205 l-7 -57 35 35
c77 77 221 75 292 -5 57 -62 67 -166 25 -251 -55 -109 -229 -131 -320 -39 -47
46 -69 119 -69 222 0 169 51 284 145 325 32 14 122 18 175 8z m490 -14 c78
-40 112 -124 113 -280 1 -198 -52 -292 -176 -315 -58 -11 -133 12 -172 52 -44
45 -65 107 -72 215 -12 172 37 301 127 337 44 17 137 13 180 -9z m-1918 -237
l87 -87 82 87 c44 48 87 87 94 87 37 0 21 -29 -61 -111 l-89 -89 90 -90 c71
-71 87 -92 77 -102 -10 -10 -31 6 -102 77 l-90 90 -90 -90 c-82 -81 -91 -88
-106 -74 -14 15 -7 24 77 103 l93 87 -93 93 c-83 84 -98 106 -67 106 6 0 50
-39 98 -87z"/>
<path d="M2373 3849 c-70 -20 -121 -106 -107 -180 19 -100 74 -149 165 -149
101 0 162 64 162 170 0 74 -24 118 -83 148 -47 23 -84 26 -137 11z"/>
<path d="M2857 4049 c-54 -29 -86 -100 -94 -212 -14 -204 47 -317 172 -317 96
0 149 64 166 200 9 73 -1 193 -21 246 -35 90 -137 129 -223 83z"/>
<path d="M4833 3849 c-70 -20 -121 -106 -107 -180 19 -100 74 -149 165 -149
101 0 162 64 162 170 0 74 -24 118 -83 148 -47 23 -84 26 -137 11z"/>
<path d="M5317 4049 c-54 -29 -86 -100 -94 -212 -14 -204 47 -317 172 -317 96
0 149 64 166 200 9 73 -1 193 -21 246 -35 90 -137 129 -223 83z"/>
</g>
</svg>
