<?xml version="1.0" standalone="no"?>
<!DOCTYPE svg PUBLIC "-//W3C//DTD SVG 20010904//EN"
 "http://www.w3.org/TR/2001/REC-SVG-20010904/DTD/svg10.dtd">
<svg version="1.0" xmlns="http://www.w3.org/2000/svg"
 width="970.000000pt" height="250.000000pt" viewBox="0 0 970.000000 250.000000"
 preserveAspectRatio="xMidYMid meet">

<g transform="translate(0.000000,250.000000) scale(0.100000,-0.100000)"
fill="#000000" stroke="none">
<path d="M0 1250 l0 -1250 4850 0 4850 0 0 1250 0 1250 -4850 0 -4850 0 0
-1250z m2555 369 c61 -17 129 -90 151 -164 39 -126 17 -383 -41 -481 -67 -114
-198 -158 -360 -121 -41 10 -51 16 -53 36 -3 21 -1 23 25 16 61 -16 153 -22
198 -14 109 20 180 117 192 262 l6 72 -27 -32 c-54 -64 -170 -96 -265 -73
-114 27 -181 117 -181 244 0 91 12 132 52 180 62 75 188 107 303 75z m1303 -5
c112 -46 163 -165 163 -380 0 -253 -74 -374 -236 -391 -134 -14 -235 53 -275
183 -38 126 -37 316 4 435 39 111 120 169 238 169 39 0 85 -7 106 -16z m1871
-17 c57 -38 85 -95 85 -177 0 -120 -64 -222 -260 -408 l-116 -112 191 0 191 0
0 -25 0 -25 -230 0 -230 0 0 23 c0 16 28 48 98 111 119 108 232 233 267 298
28 51 43 144 31 192 -11 44 -62 92 -111 106 -59 17 -144 6 -214 -25 -29 -14
-55 -25 -57 -25 -2 0 -4 11 -4 24 0 19 10 28 48 44 69 30 79 31 178 28 81 -2
97 -5 133 -29z m1269 17 c112 -46 163 -165 163 -380 0 -253 -74 -374 -236
-391 -134 -14 -235 53 -275 183 -38 126 -37 316 4 435 39 111 120 169 238 169
39 0 85 -7 106 -16z m-3648 -13 c0 -11 -16 -48 -37 -82 -80 -137 -175 -354
-244 -554 -33 -99 -40 -110 -63 -113 -14 -2 -26 1 -26 7 0 14 87 249 129 350
17 41 65 140 106 219 41 80 75 147 75 148 0 2 -97 4 -215 4 -208 0 -215 1
-215 20 0 19 7 20 245 20 236 0 245 -1 245 -19z m3100 -1 c0 -19 -7 -20 -174
-20 l-174 0 -7 -117 c-3 -65 -9 -131 -12 -147 -5 -25 -3 -28 13 -21 102 42
196 45 273 6 96 -49 134 -170 95 -300 -40 -136 -200 -196 -378 -141 -58 18
-66 24 -66 45 0 14 1 25 3 25 1 0 27 -9 57 -21 130 -50 270 -19 320 72 30 55
34 165 7 216 -46 86 -183 116 -289 62 -21 -11 -49 -19 -64 -19 -26 0 -27 0
-21 58 4 31 9 117 13 190 l7 132 198 0 c192 0 199 -1 199 -20z m-1660 -295
c108 109 115 114 132 98 18 -16 14 -22 -97 -133 l-115 -115 115 -115 c88 -88
112 -117 103 -127 -6 -7 -15 -13 -22 -13 -6 0 -60 50 -121 110 l-110 110 -110
-110 c-60 -60 -114 -110 -120 -110 -6 0 -16 5 -23 12 -10 10 12 37 103 128
l115 115 -115 115 c-109 108 -114 115 -98 132 16 18 22 14 133 -97 l115 -115
115 115z"/>
<path d="M2377 1575 c-80 -28 -126 -100 -127 -196 0 -142 73 -222 206 -221
138 1 226 99 211 234 -18 149 -151 233 -290 183z"/>
<path d="M3686 1580 c-16 -5 -47 -26 -68 -47 -58 -57 -82 -144 -82 -298 1
-214 56 -323 175 -345 106 -20 195 33 234 140 17 46 20 80 20 205 0 166 -14
228 -63 287 -49 57 -137 81 -216 58z"/>
<path d="M6826 1580 c-16 -5 -47 -26 -68 -47 -58 -57 -82 -144 -82 -298 1
-214 56 -323 175 -345 106 -20 195 33 234 140 17 46 20 80 20 205 0 166 -14
228 -63 287 -49 57 -137 81 -216 58z"/>
</g>
</svg>
