<?xml version="1.0" encoding="UTF-8"?>
<!-- Generator: visioncortex VTracer 0.6.3 -->
<svg version="1.1" xmlns="http://www.w3.org/2000/svg" width="1280" height="1280">
<path d="M0 0 C422.4 0 844.8 0 1280 0 C1280 422.4 1280 844.8 1280 1280 C857.6 1280 435.2 1280 0 1280 C0 857.6 0 435.2 0 0 Z " fill="#979999" transform="translate(0,0)"/>
<path d="M0 0 C422.4 0 844.8 0 1280 0 C1280 422.4 1280 844.8 1280 1280 C1269.11 1280 1258.22 1280 1247 1280 C1246.84 1276.42 1246.68 1272.84 1246.52 1269.16 C1243.88 1212.09 1236.92 1156.76 1220 1102 C1219.66 1100.88 1219.31 1099.77 1218.96 1098.62 C1217.9 1095.2 1216.83 1091.79 1215.75 1088.38 C1215.26 1086.8 1215.26 1086.8 1214.75 1085.2 C1213.16 1080.23 1211.46 1075.62 1209 1071 C1208.53 1069.7 1208.09 1068.39 1207.69 1067.06 C1205.71 1060.91 1203.22 1054.95 1200.79 1048.97 C1200.03 1047.07 1199.29 1045.17 1198.56 1043.26 C1195.77 1036.05 1192.69 1029.13 1189.16 1022.25 C1186.97 1017.97 1184.9 1013.65 1182.89 1009.28 C1175.19 992.57 1165.91 976.68 1156.02 961.18 C1154.3 958.48 1152.64 955.75 1151 953 C1140.09 935.04 1127.57 917.85 1114.19 901.66 C1110.17 896.78 1106.17 891.88 1102.37 886.83 C1096.3 878.79 1089.42 871.4 1082.29 864.3 C1080 862 1080 862 1077.5 858.94 C1075.17 856.2 1072.8 854.23 1070 852 C1069.4 851.24 1068.8 850.47 1068.19 849.69 C1065.77 846.72 1063.11 844.43 1060.21 841.95 C1057.87 839.89 1055.69 837.72 1053.5 835.5 C1043.27 825.16 1031.71 816.18 1020.44 807.01 C1018.48 805.4 1016.58 803.75 1014.69 802.06 C1009.68 797.73 1004.14 794.04 998.73 790.23 C996.26 788.47 993.82 786.67 991.38 784.88 C980.35 776.85 968.79 769.64 957.23 762.4 C955.26 761.16 953.28 759.91 951.31 758.66 C945.5 755.02 939.67 751.75 933.5 748.77 C928.92 746.46 924.47 743.94 920 741.44 C913.69 737.92 907.45 734.72 900.7 732.1 C897.79 730.91 895.04 729.52 892.25 728.06 C887.08 725.42 881.79 723.36 876.35 721.39 C871.09 719.47 866.02 717.26 860.94 714.94 C853.11 711.4 845.22 708.51 837 706 C836.13 705.73 835.26 705.47 834.37 705.19 C829.46 703.69 824.55 702.19 819.63 700.71 C814.73 699.22 809.83 697.72 804.94 696.19 C803.73 695.81 802.52 695.43 801.28 695.04 C798.18 694.06 795.09 693.04 792 692 C794.47 689.16 797.11 687.84 800.5 686.25 C805.7 683.72 810.52 680.88 815.36 677.71 C817.82 676.11 820.33 674.65 822.88 673.19 C828.23 670 833.07 666.23 837.96 662.39 C840.38 660.48 842.83 658.63 845.31 656.81 C851.86 651.91 857.7 646.42 863.34 640.5 C865 639 865 639 867 639 C867 638.34 867 637.68 867 637 C868.68 635.38 868.68 635.38 870.88 633.56 C873.46 631.42 875.11 629.83 877 627 C877.66 627 878.32 627 879 627 C879.21 626.45 879.42 625.91 879.64 625.35 C881.49 622.16 884.08 619.93 886.75 617.44 C894.99 609.49 901.43 600.33 908 591 C908.7 590.03 909.4 589.06 910.12 588.05 C911.78 585.73 913.4 583.37 915 581 C915.66 580.04 916.31 579.09 916.99 578.1 C924.25 567.23 930.1 555.65 936 544 C936.5 543.03 937 542.05 937.52 541.05 C941.08 534.07 944.19 526.98 947.06 519.69 C947.71 518.05 947.71 518.05 948.37 516.37 C953.71 502.78 957.87 489.25 961 475 C961.31 473.6 961.31 473.6 961.62 472.17 C961.79 471.41 961.95 470.66 962.12 469.88 C962.66 467.49 963.27 465.13 963.97 462.79 C965.08 458.69 965.74 454.7 966.29 450.5 C966.4 449.68 966.51 448.87 966.62 448.03 C974.02 391.11 969.69 335.73 950.75 281.25 C950.52 280.58 950.28 279.9 950.04 279.21 C949.04 276.45 947.97 273.95 946.46 271.43 C944.79 268.65 943.92 265.97 942.94 262.88 C939.92 254.18 935.62 246.28 931.21 238.22 C930.12 236.22 929.06 234.22 928.01 232.21 C924.67 225.88 921.12 219.86 917 214 C916.44 213.2 915.89 212.4 915.32 211.58 C914.14 209.89 912.96 208.21 911.78 206.54 C910.61 204.86 909.44 203.18 908.28 201.5 C904.7 196.3 900.95 191.33 896.96 186.44 C895.11 184.14 893.34 181.8 891.56 179.44 C888.36 175.29 884.79 171.67 881.02 168.04 C876 162.96 876 162.96 876 160 C875.42 159.75 874.85 159.51 874.25 159.25 C871.64 157.8 869.99 156.11 867.94 153.94 C863.84 149.75 859.53 146.05 854.96 142.39 C852.28 140.23 849.66 138.01 847.05 135.76 C842.27 131.64 837.48 127.76 832.14 124.38 C829.86 122.91 827.69 121.34 825.5 119.75 C820.25 116.04 814.74 112.85 809.18 109.63 C805.4 107.44 801.71 105.2 798.12 102.69 C792.9 99.1 786.45 95 780 95 C778.98 94.02 777.98 93.02 777 92 C775.02 90.88 775.02 90.88 772.78 89.95 C771.94 89.58 771.1 89.22 770.24 88.84 C769.33 88.46 768.43 88.08 767.5 87.69 C766.56 87.29 765.62 86.89 764.66 86.48 C756.36 83.03 747.96 80.23 739.34 77.7 C737.03 77.01 734.74 76.27 732.46 75.51 C687.95 61.03 639.15 58.31 593 65 C591.83 65.17 590.67 65.33 589.47 65.5 C570.43 67.93 570.43 67.93 552.09 73.23 C548.14 74.69 544.06 75.7 540 76.81 C520.74 82.25 503.03 90.39 485 99 C484.12 99.42 483.23 99.84 482.32 100.28 C474.51 104.02 467.06 107.94 460 113 C458 114.38 456 115.75 454 117.12 C452.3 118.31 450.6 119.49 448.9 120.68 C446.84 122.11 444.77 123.54 442.7 124.96 C435.74 129.8 428.94 134.52 422.86 140.48 C421 142 421 142 418.33 143.02 C417.56 143.35 416.79 143.67 416 144 C415.67 144.99 415.34 145.98 415 147 C414.34 147 413.68 147 413 147 C412.74 147.6 412.48 148.19 412.22 148.81 C410.9 151.18 409.61 152.38 407.5 154.06 C405.06 156.01 403.78 157.33 402 160 C401.34 160 400.68 160 400 160 C399.67 160.99 399.34 161.98 399 163 C398.3 163.56 397.6 164.11 396.88 164.69 C382.2 176.49 370.59 194.77 360.32 210.49 C358.71 212.96 357.03 215.38 355.3 217.77 C353.15 220.79 351.63 223.68 350 227 C349.11 228.46 348.22 229.92 347.31 231.38 C339.16 244.88 332.96 259.42 327 274 C326.69 274.74 326.38 275.49 326.07 276.26 C299.73 340.78 294.25 420.75 316.73 487.21 C317.67 490.02 318.53 492.81 319.33 495.66 C322.63 507.42 326.92 518.44 331.93 529.58 C332.91 531.8 333.86 534.03 334.78 536.28 C339.44 547.52 345.28 558.04 352.11 568.12 C354 571 354 571 355.4 573.86 C357.46 577.91 359.99 581.5 362.62 585.19 C363.16 585.94 363.69 586.69 364.24 587.46 C368.59 593.53 373.19 599.29 378 605 C378.68 605.85 379.36 606.71 380.06 607.59 C390.61 620.81 402.42 632.71 415 644 C415.77 644.7 416.54 645.4 417.34 646.12 C434.78 661.66 456.98 679.71 478.79 688.59 C482 690 482 690 483.44 692.19 C483.62 692.79 483.81 693.38 484 694 C479.97 695.57 475.97 697.04 471.82 698.24 C464.72 700.35 457.71 702.69 450.69 705.02 C448.34 705.8 445.98 706.58 443.63 707.35 C433.93 710.56 424.45 714.11 415 718 C413.54 718.58 412.07 719.16 410.61 719.74 C399.51 724.22 388.76 729.4 378 734.62 C377.24 734.99 376.48 735.36 375.7 735.74 C367.81 739.57 359.97 743.47 352.29 747.73 C350.29 748.84 348.28 749.91 346.24 750.95 C337.92 755.24 330.09 760.04 322.28 765.2 C318.09 767.96 313.83 770.61 309.56 773.25 C303.56 776.98 297.72 780.85 292 785 C291.13 785.62 290.26 786.25 289.37 786.89 C282.52 791.84 275.74 796.9 269 802 C268.43 802.43 267.87 802.85 267.28 803.29 C265.54 804.61 263.8 805.93 262.06 807.25 C261.02 808.04 259.98 808.83 258.91 809.64 C256.07 811.94 253.55 814.39 251 817 C249.64 818.27 248.27 819.52 246.88 820.75 C246.21 821.34 245.55 821.94 244.87 822.55 C243 824 243 824 240 825 C239.33 826.33 238.67 827.67 238 829 C236.15 830.61 236.15 830.61 233.94 832.19 C228.81 836.02 224.44 840.4 220 845 C217.45 847.61 214.97 850.02 212.12 852.31 C209.02 854.85 206.52 857.77 203.93 860.82 C201.82 863.2 199.59 865.41 197.31 867.62 C194.83 870.07 192.59 872.35 190.75 875.31 C189 878 189 878 186.69 879.79 C183.69 882.25 181.52 885.02 179.25 888.12 C176.17 892.25 173.02 896.17 169.5 899.94 C165.06 904.77 161.33 909.95 157.58 915.33 C155.91 917.72 154.2 920.09 152.45 922.42 C140.58 938.21 129.96 954.88 120.16 972.01 C119.35 973.4 118.53 974.77 117.69 976.13 C112.89 983.94 108.69 992.04 104.5 1000.19 C104.11 1000.95 103.72 1001.71 103.32 1002.49 C92.79 1023.02 82.53 1043.83 75.43 1065.84 C74.19 1069.63 72.61 1073.2 70.96 1076.83 C69.55 1080.03 68.4 1083.31 67.31 1086.62 C67.07 1087.37 66.82 1088.12 66.57 1088.89 C56.99 1118.49 49.08 1148.51 44.42 1179.31 C43.98 1182.1 43.5 1184.89 43.02 1187.68 C41.78 1195.09 40.87 1202.54 40 1210 C39.91 1210.74 39.83 1211.48 39.74 1212.24 C37.11 1234.77 35.83 1257.33 35 1280 C23.45 1280 11.9 1280 0 1280 C0 857.6 0 435.2 0 0 Z " fill="#FDFDFD" transform="translate(0,0)"/>
</svg>
