<?xml version="1.0" encoding="UTF-8"?>
<!DOCTYPE svg PUBLIC "-//W3C//DTD SVG 1.1//EN" "http://www.w3.org/Graphics/SVG/1.1/DTD/svg11.dtd">
<svg xmlns="http://www.w3.org/2000/svg" version="1.1" width="128px" height="128px" style="shape-rendering:geometricPrecision; text-rendering:geometricPrecision; image-rendering:optimizeQuality; fill-rule:evenodd; clip-rule:evenodd" xmlns:xlink="http://www.w3.org/1999/xlink">
<g><path style="opacity:0.991" fill="#6bf4c1" d="M 62.5,3.5 C 67.0523,10.2305 72.219,16.5638 78,22.5C 79.3342,23.8779 79.5009,25.2113 78.5,26.5C 76.8333,26.5 75.1667,26.5 73.5,26.5C 72.5,26.5 71.5,26.5 70.5,26.5C 70.8207,37.748 70.4874,48.9146 69.5,60C 70.0944,60.4643 70.7611,60.631 71.5,60.5C 66.0992,61.8248 60.5992,61.8248 55,60.5C 54.83,50.658 54.33,40.9913 53.5,31.5C 53.5,29.8333 53.5,28.1667 53.5,26.5C 50.5,26.5 47.5,26.5 44.5,26.5C 44.3505,25.448 44.5172,24.448 45,23.5C 50.6152,16.5739 56.4485,9.90728 62.5,3.5 Z"/></g>
<g><path style="opacity:1" fill="#1ce7a0" d="M 62.5,3.5 C 64.3904,3.2965 65.8904,3.96317 67,5.5C 71.6233,11.7921 76.6233,17.7921 82,23.5C 82.4828,24.448 82.6495,25.448 82.5,26.5C 81.1667,26.5 79.8333,26.5 78.5,26.5C 79.5009,25.2113 79.3342,23.8779 78,22.5C 72.219,16.5638 67.0523,10.2305 62.5,3.5 Z"/></g>
<g><path style="opacity:1" fill="#08e49a" d="M 73.5,26.5 C 73.5,28.1667 73.5,29.8333 73.5,31.5C 72.8333,41.1667 72.1667,50.8333 71.5,60.5C 70.7611,60.631 70.0944,60.4643 69.5,60C 70.4874,48.9146 70.8207,37.748 70.5,26.5C 71.5,26.5 72.5,26.5 73.5,26.5 Z"/></g>
<g><path style="opacity:0.976" fill="#ebeef1" d="M 53.5,31.5 C 53.5,33.8333 53.5,36.1667 53.5,38.5C 42.1667,38.5 30.8333,38.5 19.5,38.5C 19.5,54.8333 19.5,71.1667 19.5,87.5C 47.5,87.5 75.5,87.5 103.5,87.5C 104.833,87.5 106.167,87.5 107.5,87.5C 107.83,70.9915 107.496,54.6581 106.5,38.5C 95.7097,38.3936 84.7097,38.3936 73.5,38.5C 73.5,36.1667 73.5,33.8333 73.5,31.5C 85.5046,31.3335 97.5046,31.5001 109.5,32C 110.416,32.2784 111.082,32.7784 111.5,33.5C 111.667,53.8361 111.5,74.1694 111,94.5C 110.167,95.3333 109.333,96.1667 108.5,97C 92.9224,98.1523 77.2558,98.6523 61.5,98.5C 45.7906,98.4851 30.124,98.1517 14.5,97.5C 13.7784,97.0825 13.2784,96.4158 13,95.5C 12.8333,85.6667 12.6667,75.8333 12.5,66C 12.3556,55.4059 12.8556,44.9059 14,34.5C 14.9025,33.2986 16.0692,32.4652 17.5,32C 29.4954,31.5001 41.4954,31.3335 53.5,31.5 Z"/></g>
<g><path style="opacity:1" fill="#d5d6da" d="M 111.5,33.5 C 112.79,34.0577 113.623,35.0577 114,36.5C 114.667,56.1667 114.667,75.8333 114,95.5C 112.74,98.4281 110.573,100.261 107.5,101C 98.1726,101.5 88.8393,101.666 79.5,101.5C 78.791,100.596 77.791,100.263 76.5,100.5C 66.6522,100.173 56.9856,100.506 47.5,101.5C 38.1607,101.666 28.8274,101.5 19.5,101C 17.1192,100.777 15.4525,99.61 14.5,97.5C 30.124,98.1517 45.7906,98.4851 61.5,98.5C 77.2558,98.6523 92.9224,98.1523 108.5,97C 109.333,96.1667 110.167,95.3333 111,94.5C 111.5,74.1694 111.667,53.8361 111.5,33.5 Z"/></g>
<g><path style="opacity:1" fill="#d7ebfd" d="M 53.5,31.5 C 54.33,40.9913 54.83,50.658 55,60.5C 60.5992,61.8248 66.0992,61.8248 71.5,60.5C 72.1667,50.8333 72.8333,41.1667 73.5,31.5C 73.5,33.8333 73.5,36.1667 73.5,38.5C 84.7097,38.3936 95.7097,38.3936 106.5,38.5C 105.5,38.5 104.5,38.5 103.5,38.5C 103.5,54.8333 103.5,71.1667 103.5,87.5C 75.5,87.5 47.5,87.5 19.5,87.5C 19.5,71.1667 19.5,54.8333 19.5,38.5C 30.8333,38.5 42.1667,38.5 53.5,38.5C 53.5,36.1667 53.5,33.8333 53.5,31.5 Z"/></g>
<g><path style="opacity:1" fill="#c4e2ff" d="M 106.5,38.5 C 107.496,54.6581 107.83,70.9915 107.5,87.5C 106.167,87.5 104.833,87.5 103.5,87.5C 103.5,71.1667 103.5,54.8333 103.5,38.5C 104.5,38.5 105.5,38.5 106.5,38.5 Z"/></g>
<g><path style="opacity:0.995" fill="#a89ca8" d="M 76.5,100.5 C 76.5,104.5 76.5,108.5 76.5,112.5C 66.8333,112.5 57.1667,112.5 47.5,112.5C 47.5,108.833 47.5,105.167 47.5,101.5C 56.9856,100.506 66.6522,100.173 76.5,100.5 Z"/></g>
<g><path style="opacity:0.98" fill="#897c89" d="M 76.5,100.5 C 77.791,100.263 78.791,100.596 79.5,101.5C 79.5,105.167 79.5,108.833 79.5,112.5C 78.5,112.5 77.5,112.5 76.5,112.5C 76.5,108.5 76.5,104.5 76.5,100.5 Z"/></g>
<g><path style="opacity:0.972" fill="#eaecef" d="M 47.5,112.5 C 57.1667,112.5 66.8333,112.5 76.5,112.5C 77.5,112.5 78.5,112.5 79.5,112.5C 84.9265,112.218 90.2599,112.551 95.5,113.5C 95.5,116.167 95.5,118.833 95.5,121.5C 73.1413,120.844 51.1413,121.511 29.5,123.5C 28.0748,120.277 28.4081,117.11 30.5,114C 36.0438,112.596 41.7104,112.096 47.5,112.5 Z"/></g>
<g><path style="opacity:1" fill="#d1d1d6" d="M 95.5,113.5 C 96.7899,114.058 97.6232,115.058 98,116.5C 98.4966,118.81 98.6633,121.143 98.5,123.5C 75.5,123.5 52.5,123.5 29.5,123.5C 51.1413,121.511 73.1413,120.844 95.5,121.5C 95.5,118.833 95.5,116.167 95.5,113.5 Z"/></g>
</svg>
