<?xml version="1.0" encoding="UTF-8"?>
<!DOCTYPE svg PUBLIC "-//W3C//DTD SVG 1.1//EN" "http://www.w3.org/Graphics/SVG/1.1/DTD/svg11.dtd">
<svg xmlns="http://www.w3.org/2000/svg" version="1.1" width="360px" height="359px" style="shape-rendering:geometricPrecision; text-rendering:geometricPrecision; image-rendering:optimizeQuality; fill-rule:evenodd; clip-rule:evenodd" xmlns:xlink="http://www.w3.org/1999/xlink">
<g><path style="opacity:1" fill="#c1373d" d="M 191.5,2.5 C 199.564,3.87037 206.898,6.87037 213.5,11.5C 206.613,8.80489 199.613,6.30489 192.5,4C 191.944,3.61742 191.611,3.11742 191.5,2.5 Z"/></g>
<g><path style="opacity:1" fill="#ca383b" d="M 165.5,3.5 C 158.806,8.33955 151.472,11.3395 143.5,12.5C 148.735,9.05063 154.402,6.38396 160.5,4.5C 162.042,3.69929 163.708,3.36596 165.5,3.5 Z"/></g>
<g><path style="opacity:1" fill="#d02f36" d="M 143.5,12.5 C 142.337,14.9822 140.337,16.3155 137.5,16.5C 137.64,18.1238 136.973,19.2904 135.5,20C 136.34,21.6665 135.84,21.8331 134,20.5C 130.139,21.6707 126.639,23.504 123.5,26C 122.207,26.49 120.873,26.6567 119.5,26.5C 126.836,20.8274 134.836,16.1607 143.5,12.5 Z"/></g>
<g><path style="opacity:1" fill="#fafafa" d="M 159.5,26.5 C 162.833,26.5 166.167,26.5 169.5,26.5C 185.357,25.7603 201.024,27.0937 216.5,30.5C 236.064,35.6174 254.064,43.9507 270.5,55.5C 275.126,59.4899 279.793,63.4899 284.5,67.5C 297.869,80.5154 308.869,95.1821 317.5,111.5C 321.779,121.674 325.446,132.007 328.5,142.5C 328.5,142.833 328.5,143.167 328.5,143.5C 330.491,151.51 331.825,159.51 332.5,167.5C 332.566,176.852 332.232,186.185 331.5,195.5C 330.319,202.101 329.319,208.767 328.5,215.5C 325.459,222.953 322.792,230.62 320.5,238.5C 316.774,246.285 312.774,253.952 308.5,261.5C 303.845,267.461 299.178,273.461 294.5,279.5C 280.704,294.727 264.704,307.06 246.5,316.5C 237.141,320.062 227.808,323.395 218.5,326.5C 209.51,327.998 200.51,329.498 191.5,331C 179.434,331.831 167.434,331.331 155.5,329.5C 154.77,327.955 153.437,327.122 151.5,327C 146.336,325.374 141.003,324.54 135.5,324.5C 124.949,321.872 114.949,317.872 105.5,312.5C 83.7049,300.373 65.7049,284.039 51.5,263.5C 45.0126,252.193 39.3459,240.526 34.5,228.5C 31.9182,219.446 29.5849,210.446 27.5,201.5C 27.8128,197.958 27.4794,194.625 26.5,191.5C 25.1323,171.774 27.1323,152.44 32.5,133.5C 43.9634,99.254 64.6301,71.9206 94.5,51.5C 102.04,46.8981 109.706,42.5647 117.5,38.5C 119.403,38.2041 121.07,37.5375 122.5,36.5C 134.846,32.6663 147.179,29.333 159.5,26.5 Z"/></g>
<g><path style="opacity:1" fill="#c8484c" d="M 246.5,29.5 C 251.192,29.4249 255.526,30.4249 259.5,32.5C 254.83,32.4889 250.497,31.4889 246.5,29.5 Z"/></g>
<g><path style="opacity:1" fill="#cc3d3e" d="M 119.5,26.5 C 117.879,28.1172 115.879,29.2838 113.5,30C 108.675,31.8947 103.675,32.728 98.5,32.5C 105.271,30.0538 112.271,28.0538 119.5,26.5 Z"/></g>
<g><path style="opacity:1" fill="#c54444" d="M 98.5,32.5 C 94.4979,34.6098 90.1646,35.9431 85.5,36.5C 89.5021,34.3902 93.8354,33.0569 98.5,32.5 Z"/></g>
<g><path style="opacity:1" fill="#d8222a" d="M 191.5,2.5 C 191.611,3.11742 191.944,3.61742 192.5,4C 199.613,6.30489 206.613,8.80489 213.5,11.5C 224.551,17.5856 235.551,23.5856 246.5,29.5C 250.497,31.4889 254.83,32.4889 259.5,32.5C 273.497,35.0022 286.497,40.0022 298.5,47.5C 298.703,49.0443 299.37,50.3777 300.5,51.5C 304.846,54.8484 308.846,58.5151 312.5,62.5C 316.818,68.1382 319.818,74.4715 321.5,81.5C 322.56,87.849 323.727,94.1823 325,100.5C 325.236,102.119 326.069,103.119 327.5,103.5C 327.712,110.343 328.878,117.01 331,123.5C 333.491,124.649 335.657,126.816 337.5,130C 338.615,131.235 338.615,132.402 337.5,133.5C 338.689,134.429 340.022,134.762 341.5,134.5C 344.669,138.833 347.336,143.5 349.5,148.5C 349.511,150.547 349.844,152.547 350.5,154.5C 350.176,156.569 349.342,156.902 348,155.5C 347.51,156.793 347.343,158.127 347.5,159.5C 348.833,159.5 350.167,159.5 351.5,159.5C 351.156,164.218 352.656,168.218 356,171.5C 356.499,176.155 356.666,180.821 356.5,185.5C 355.883,185.611 355.383,185.944 355,186.5C 353.598,194.451 351.431,202.117 348.5,209.5C 343.205,221.423 336.872,232.757 329.5,243.5C 328.21,244.058 327.377,245.058 327,246.5C 325.767,256.292 323.934,265.959 321.5,275.5C 320.207,276.842 319.374,278.509 319,280.5C 318.333,281.833 317.667,281.833 317,280.5C 316.012,283.424 315.346,286.424 315,289.5C 314.581,290.672 313.915,291.672 313,292.5C 312.333,291.167 311.667,291.167 311,292.5C 310.51,293.793 310.343,295.127 310.5,296.5C 308.058,296.119 307.391,296.786 308.5,298.5C 306.626,300.816 304.96,303.15 303.5,305.5C 303.5,306.167 303.167,306.5 302.5,306.5C 301.178,306.67 300.011,306.337 299,305.5C 298.517,306.448 298.351,307.448 298.5,308.5C 297.127,308.657 295.793,308.49 294.5,308C 294.957,307.586 295.291,307.086 295.5,306.5C 294.045,305.255 292.711,305.422 291.5,307C 293.192,308.401 293.859,310.234 293.5,312.5C 290.276,312.203 287.276,312.87 284.5,314.5C 283.614,315.325 283.281,316.325 283.5,317.5C 277.068,320.289 270.402,322.789 263.5,325C 260.522,325.696 257.522,326.196 254.5,326.5C 246.624,327.351 238.958,329.018 231.5,331.5C 231.5,330.167 231.5,328.833 231.5,327.5C 229.641,327.539 228.308,326.706 227.5,325C 229.833,324.667 232.167,324.333 234.5,324C 238.429,321.213 242.429,318.713 246.5,316.5C 264.704,307.06 280.704,294.727 294.5,279.5C 295.833,279.5 297.167,279.5 298.5,279.5C 298.343,278.127 298.51,276.793 299,275.5C 301.185,272.113 304.019,269.446 307.5,267.5C 308.466,265.604 308.799,263.604 308.5,261.5C 312.774,253.952 316.774,246.285 320.5,238.5C 322.823,235.865 324.656,232.865 326,229.5C 326.837,224.82 327.671,220.154 328.5,215.5C 330.08,213.283 331.08,210.616 331.5,207.5C 332.325,203.878 332.825,200.211 333,196.5C 333.29,198.952 333.956,201.285 335,203.5C 334.924,186.042 334.257,168.376 333,150.5C 331.456,148.043 329.956,145.709 328.5,143.5C 328.5,143.167 328.5,142.833 328.5,142.5C 326.774,132.491 323.941,122.824 320,113.5C 319.292,112.619 318.458,111.953 317.5,111.5C 308.869,95.1821 297.869,80.5154 284.5,67.5C 282.032,61.0387 277.366,57.0387 270.5,55.5C 254.064,43.9507 236.064,35.6174 216.5,30.5C 217.263,29.7321 218.263,29.2321 219.5,29C 202.79,25.7822 186.124,24.9489 169.5,26.5C 166.167,26.5 162.833,26.5 159.5,26.5C 150.497,27.2219 141.664,28.8886 133,31.5C 131.674,31.2451 130.674,30.5784 130,29.5C 127.531,31.9636 125.031,34.297 122.5,36.5C 121.07,37.5375 119.403,38.2041 117.5,38.5C 114.188,39.4847 110.854,40.4847 107.5,41.5C 103.87,44.6383 99.8695,47.1383 95.5,49C 94.7476,49.6708 94.4142,50.5041 94.5,51.5C 64.6301,71.9206 43.9634,99.254 32.5,133.5C 31.2082,135.255 30.2082,137.255 29.5,139.5C 25.6232,156.725 24.6232,174.058 26.5,191.5C 27.4794,194.625 27.8128,197.958 27.5,201.5C 28.3678,210.403 30.0345,219.07 32.5,227.5C 30.5033,229.296 28.0033,231.296 25,233.5C 24.5831,232.244 23.7498,231.577 22.5,231.5C 21.1224,227.742 19.4557,224.075 17.5,220.5C 16.3578,219.174 15.0245,218.174 13.5,217.5C 13.5,217.167 13.5,216.833 13.5,216.5C 10.4681,209.693 7.46812,203.026 4.5,196.5C 4.44331,194.116 4.77664,191.782 5.5,189.5C 2.7646,182.935 1.7646,175.935 2.5,168.5C 4.70448,163.887 6.37115,158.887 7.5,153.5C 9.99217,147.182 12.9922,141.182 16.5,135.5C 17.6431,135.092 18.6431,134.425 19.5,133.5C 21.4347,129.95 23.6014,126.617 26,123.5C 26.49,122.207 26.6567,120.873 26.5,119.5C 29.6585,107.534 32.8252,95.5345 36,83.5C 37.6675,78.1769 39.8341,73.1769 42.5,68.5C 43.5,68.5 44.5,68.5 45.5,68.5C 45.1814,70.7505 45.6814,72.7505 47,74.5C 45.5011,64.6553 49.0011,57.1553 57.5,52C 59.7008,51.1751 61.5341,51.6751 63,53.5C 63.3334,51.9532 62.8334,50.6199 61.5,49.5C 62.325,48.6143 63.325,48.281 64.5,48.5C 64.5,47.5 64.5,46.5 64.5,45.5C 69.0976,44.5346 73.0976,42.5346 76.5,39.5C 79.145,37.6896 82.145,36.6896 85.5,36.5C 90.1646,35.9431 94.4979,34.6098 98.5,32.5C 103.675,32.728 108.675,31.8947 113.5,30C 115.879,29.2838 117.879,28.1172 119.5,26.5C 120.873,26.6567 122.207,26.49 123.5,26C 126.639,23.504 130.139,21.6707 134,20.5C 135.84,21.8331 136.34,21.6665 135.5,20C 136.973,19.2904 137.64,18.1238 137.5,16.5C 140.337,16.3155 142.337,14.9822 143.5,12.5C 151.472,11.3395 158.806,8.33955 165.5,3.5C 165.833,3.5 166.167,3.5 166.5,3.5C 174.8,2.62868 183.133,2.29535 191.5,2.5 Z"/></g>
<g><path style="opacity:1" fill="#cd5151" d="M 169.5,26.5 C 186.124,24.9489 202.79,25.7822 219.5,29C 218.263,29.2321 217.263,29.7321 216.5,30.5C 201.024,27.0937 185.357,25.7603 169.5,26.5 Z"/></g>
<g><path style="opacity:1" fill="#ca3c3f" d="M 159.5,26.5 C 147.179,29.333 134.846,32.6663 122.5,36.5C 125.031,34.297 127.531,31.9636 130,29.5C 130.674,30.5784 131.674,31.2451 133,31.5C 141.664,28.8886 150.497,27.2219 159.5,26.5 Z"/></g>
<g><path style="opacity:1" fill="#6b6b6d" d="M 163.5,35.5 C 168.328,35.3852 169.661,37.5519 167.5,42C 161.738,42.4178 160.404,40.2511 163.5,35.5 Z"/></g>
<g><path style="opacity:1" fill="#6d6d6f" d="M 177.5,34.5 C 183.016,34.4734 184.349,36.64 181.5,41C 175.738,41.4178 174.404,39.2511 177.5,34.5 Z"/></g>
<g><path style="opacity:1" fill="#66676a" d="M 205.5,37.5 C 210.328,37.3852 211.661,39.5519 209.5,44C 203.738,44.4178 202.404,42.2511 205.5,37.5 Z"/></g>
<g><path style="opacity:1" fill="#6b6b6e" d="M 191.5,35.5 C 197.016,35.4734 198.349,37.64 195.5,42C 190.57,42.427 189.237,40.2604 191.5,35.5 Z"/></g>
<g><path style="opacity:1" fill="#c43d43" d="M 76.5,39.5 C 73.0976,42.5346 69.0976,44.5346 64.5,45.5C 67.9024,42.4654 71.9024,40.4654 76.5,39.5 Z"/></g>
<g><path style="opacity:1" fill="#c73f45" d="M 117.5,38.5 C 109.706,42.5647 102.04,46.8981 94.5,51.5C 94.4142,50.5041 94.7476,49.6708 95.5,49C 99.8695,47.1383 103.87,44.6383 107.5,41.5C 110.854,40.4847 114.188,39.4847 117.5,38.5 Z"/></g>
<g><path style="opacity:1" fill="#727274" d="M 149.5,37.5 C 155.016,37.4734 156.349,39.64 153.5,44C 147.738,44.4178 146.404,42.2511 149.5,37.5 Z"/></g>
<g><path style="opacity:1" fill="#6d6c70" d="M 219.5,40.5 C 222.352,40.3524 224.019,41.6857 224.5,44.5C 222.167,49.8333 219.833,49.8333 217.5,44.5C 217.752,42.9271 218.418,41.5938 219.5,40.5 Z"/></g>
<g><path style="opacity:1" fill="#6b6b6d" d="M 136.5,40.5 C 140.976,40.8003 142.31,42.9669 140.5,47C 134.339,47.878 133.006,45.7113 136.5,40.5 Z"/></g>
<g><path style="opacity:1" fill="#67686a" d="M 232.5,45.5 C 236.976,45.8003 238.31,47.9669 236.5,52C 230.738,52.4178 229.404,50.2511 232.5,45.5 Z"/></g>
<g><path style="opacity:1" fill="#69696c" d="M 122.5,45.5 C 128.016,45.4734 129.349,47.64 126.5,52C 121.57,52.427 120.237,50.2604 122.5,45.5 Z"/></g>
<g><path style="opacity:1" fill="#6b6c6e" d="M 153.5,49.5 C 154.833,49.5 156.167,49.5 157.5,49.5C 157.773,51.451 157.107,52.951 155.5,54C 150.168,54.947 144.834,55.7804 139.5,56.5C 139.238,55.0222 139.571,53.6888 140.5,52.5C 144.939,51.4004 149.272,50.4004 153.5,49.5 Z"/></g>
<g><path style="opacity:1" fill="#c94045" d="M 298.5,47.5 C 304.572,51.2373 309.239,56.2373 312.5,62.5C 308.846,58.5151 304.846,54.8484 300.5,51.5C 299.37,50.3777 298.703,49.0443 298.5,47.5 Z"/></g>
<g><path style="opacity:1" fill="#69696c" d="M 110.5,51.5 C 114.976,51.8003 116.31,53.9669 114.5,58C 108.339,58.878 107.006,56.7113 110.5,51.5 Z"/></g>
<g><path style="opacity:1" fill="#69686d" d="M 245.5,51.5 C 249.976,51.8003 251.31,53.9669 249.5,58C 243.339,58.878 242.006,56.7113 245.5,51.5 Z"/></g>
<g><path style="opacity:1" fill="#67686a" d="M 169.5,55.5 C 171.5,55.5 173.5,55.5 175.5,55.5C 175.443,59.1331 176.443,59.2998 178.5,56C 183.437,54.6306 187.604,55.7973 191,59.5C 191.499,65.4908 191.666,71.4908 191.5,77.5C 189.5,77.5 187.5,77.5 185.5,77.5C 185.666,72.4889 185.499,67.4889 185,62.5C 181.508,59.7651 178.342,60.0985 175.5,63.5C 174.515,67.6344 174.182,71.9677 174.5,76.5C 172.833,76.5 171.167,76.5 169.5,76.5C 169.5,69.5 169.5,62.5 169.5,55.5 Z"/></g>
<g><path style="opacity:1" fill="#ca343d" d="M 270.5,55.5 C 277.366,57.0387 282.032,61.0387 284.5,67.5C 279.793,63.4899 275.126,59.4899 270.5,55.5 Z"/></g>
<g><path style="opacity:1" fill="#67696a" d="M 256.5,59.5 C 262.555,58.9421 263.888,61.1088 260.5,66C 255.791,66.082 254.458,63.9154 256.5,59.5 Z"/></g>
<g><path style="opacity:1" fill="#6b6d6f" d="M 97.5,59.5 C 103.555,58.9421 104.888,61.1088 101.5,66C 96.7915,66.082 95.4582,63.9154 97.5,59.5 Z"/></g>
<g><path style="opacity:1" fill="#bdbec0" d="M 169.5,55.5 C 169.5,62.5 169.5,69.5 169.5,76.5C 171.167,76.5 172.833,76.5 174.5,76.5C 174.182,71.9677 174.515,67.6344 175.5,63.5C 175.5,68.1667 175.5,72.8333 175.5,77.5C 173.167,77.5 170.833,77.5 168.5,77.5C 168.175,69.9809 168.508,62.6476 169.5,55.5 Z"/></g>
<g><path style="opacity:1" fill="#6b6b6b" d="M 86.5,67.5 C 92.0159,67.4734 93.3492,69.64 90.5,74C 85.5705,74.427 84.2372,72.2604 86.5,67.5 Z"/></g>
<g><path style="opacity:1" fill="#69696c" d="M 148.5,57.5 C 161.559,58.2886 165.393,64.6219 160,76.5C 155.778,80.0521 150.945,81.2188 145.5,80C 144.167,78.6667 144.167,77.3333 145.5,76C 148.623,75.7935 151.623,75.1268 154.5,74C 158.047,68.5137 156.713,65.0137 150.5,63.5C 147.889,63.5559 145.722,64.5559 144,66.5C 142.833,65.3333 141.667,64.1667 140.5,63C 142.746,60.3906 145.413,58.5572 148.5,57.5 Z"/></g>
<g><path style="opacity:1" fill="#68686a" d="M 202.5,58.5 C 206.257,58.0708 209.757,58.7375 213,60.5C 213.388,62.0758 212.888,63.4091 211.5,64.5C 209.591,63.6518 207.591,63.3184 205.5,63.5C 205.281,64.675 205.614,65.675 206.5,66.5C 208.225,67.0149 209.892,67.6816 211.5,68.5C 210.754,69.7362 210.421,71.0695 210.5,72.5C 208.194,72.0074 205.861,71.6741 203.5,71.5C 203.33,72.8221 203.663,73.9887 204.5,75C 207.03,76.4217 209.697,76.755 212.5,76C 214.39,71.6641 215.89,67.1641 217,62.5C 218.707,61.8617 220.54,61.8617 222.5,62.5C 221.785,68.3602 220.285,74.0269 218,79.5C 212.451,82.2309 206.951,82.0642 201.5,79C 196.69,75.6453 196.356,71.9786 200.5,68C 198.861,64.3271 199.528,61.1604 202.5,58.5 Z"/></g>
<g><path style="opacity:1" fill="#d1333a" d="M 64.5,45.5 C 64.5,46.5 64.5,47.5 64.5,48.5C 63.325,48.281 62.325,48.6143 61.5,49.5C 62.8334,50.6199 63.3334,51.9532 63,53.5C 61.5341,51.6751 59.7008,51.1751 57.5,52C 49.0011,57.1553 45.5011,64.6553 47,74.5C 45.6814,72.7505 45.1814,70.7505 45.5,68.5C 44.5,68.5 43.5,68.5 42.5,68.5C 47.1101,58.2233 54.4435,50.5567 64.5,45.5 Z"/></g>
<g><path style="opacity:1" fill="#67686b" d="M 268.5,67.5 C 273.328,67.3852 274.661,69.5519 272.5,74C 266.681,74.5262 265.348,72.3595 268.5,67.5 Z"/></g>
<g><path style="opacity:1" fill="#68686b" d="M 229.5,67.5 C 236.428,67.283 240.761,70.4496 242.5,77C 240.756,82.656 238.089,87.8226 234.5,92.5C 232.668,91.7515 231.001,90.7515 229.5,89.5C 231.967,85.3982 234.3,81.2315 236.5,77C 235.336,73.6672 233.002,72.1672 229.5,72.5C 229.5,70.8333 229.5,69.1667 229.5,67.5 Z"/></g>
<g><path style="opacity:1" fill="#6e6e72" d="M 75.5,77.5 C 81.1581,76.6794 82.8248,78.846 80.5,84C 75.2791,84.6099 73.6124,82.4432 75.5,77.5 Z"/></g>
<g><path style="opacity:1" fill="#69696c" d="M 124.5,67.5 C 127.187,67.3359 129.854,67.5026 132.5,68C 136.131,72.7571 139.131,77.9238 141.5,83.5C 139.999,84.7515 138.332,85.7515 136.5,86.5C 133.912,82.326 131.579,77.9926 129.5,73.5C 126.027,72.3052 123.194,73.3052 121,76.5C 118.945,75.328 118.278,73.6614 119,71.5C 120.812,70.0229 122.645,68.6896 124.5,67.5 Z"/></g>
<g><path style="opacity:1" fill="#727275" d="M 278.5,77.5 C 283.328,77.3852 284.661,79.5519 282.5,84C 276.738,84.4178 275.404,82.2511 278.5,77.5 Z"/></g>
<g><path style="opacity:1" fill="#69686b" d="M 269.5,79.5 C 272.86,80.9605 274.026,83.2938 273,86.5C 276.651,89.0178 276.984,91.6845 274,94.5C 272.039,91.5372 269.706,88.8706 267,86.5C 266.162,83.5193 266.995,81.1859 269.5,79.5 Z"/></g>
<g><path style="opacity:1" fill="#67676b" d="M 111.5,75.5 C 112.776,78.0303 112.776,80.6969 111.5,83.5C 113.826,83.0996 116.159,83.5996 118.5,85C 120.5,87.3333 122.5,89.6667 124.5,92C 123.183,93.6591 121.517,94.8257 119.5,95.5C 117.535,91.6545 114.535,89.8212 110.5,90C 108.983,91.6851 107.316,93.1851 105.5,94.5C 107.69,96.8557 109.69,99.3557 111.5,102C 110.315,103.353 108.981,104.52 107.5,105.5C 102.619,100.786 98.2852,95.6192 94.5,90C 96.8086,85.3443 99.1419,85.3443 101.5,90C 102.167,90.6667 102.833,90.6667 103.5,90C 105.994,86.6486 107.16,82.8152 107,78.5C 108.652,77.6006 110.152,76.6006 111.5,75.5 Z"/></g>
<g><path style="opacity:1" fill="#6a6c6e" d="M 288.5,87.5 C 292.976,87.8003 294.31,89.9669 292.5,94C 286.339,94.878 285.006,92.7113 288.5,87.5 Z"/></g>
<g><path style="opacity:1" fill="#69686b" d="M 67.5,87.5 C 71.9346,87.7521 73.268,89.9188 71.5,94C 65.7377,94.4178 64.4044,92.2511 67.5,87.5 Z"/></g>
<g><path style="opacity:1" fill="#68696b" d="M 252.5,81.5 C 261.44,83.2579 265.607,88.5912 265,97.5C 262.02,101.647 258.52,105.314 254.5,108.5C 253.019,107.52 251.685,106.353 250.5,105C 257.662,99.1425 256.662,95.3091 247.5,93.5C 247.146,96.4206 248.146,98.7539 250.5,100.5C 248.824,102.921 246.824,103.088 244.5,101C 239.274,96.5847 239.274,92.2514 244.5,88C 250.662,87.5823 255.328,90.0823 258.5,95.5C 259.631,93.9255 259.798,92.2588 259,90.5C 257.019,88.3425 254.686,86.6759 252,85.5C 251.421,84.0715 251.588,82.7382 252.5,81.5 Z"/></g>
<g><path style="opacity:1" fill="#fdfcfc" d="M 197.5,97.5 C 201.239,97.8112 204.739,98.8112 208,100.5C 208.381,99.5182 209.214,98.8515 210.5,98.5C 212.94,99.8932 215.607,100.727 218.5,101C 216.833,101.333 215.167,101.667 213.5,102C 214.025,102.692 214.692,103.192 215.5,103.5C 217.198,102.319 218.865,102.319 220.5,103.5C 219.975,104.192 219.308,104.692 218.5,105C 220.193,105.847 221.86,106.68 223.5,107.5C 226.303,108.804 228.636,110.804 230.5,113.5C 232.776,114.213 235.109,114.713 237.5,115C 236.5,115.333 235.5,115.667 234.5,116C 239.103,120.419 243.103,124.585 246.5,128.5C 247.035,130.261 248.035,131.594 249.5,132.5C 250.263,133.268 251.263,133.768 252.5,134C 251.833,134.333 251.167,134.667 250.5,135C 252.77,138.27 254.604,141.77 256,145.5C 257.184,143.346 258.35,143.68 259.5,146.5C 258.975,147.192 258.308,147.692 257.5,148C 258.249,149.734 258.749,151.567 259,153.5C 260.43,151.433 261.597,151.933 262.5,155C 261.206,155.106 260.539,156.106 260.5,158C 260.667,158.833 260.833,159.667 261,160.5C 262.768,159.869 263.935,160.702 264.5,163C 264.333,163.5 264.167,164 264,164.5C 263.085,163.672 262.419,162.672 262,161.5C 261.833,162 261.667,162.5 261.5,163C 262.348,165.77 262.681,168.603 262.5,171.5C 263.372,177.758 263.705,183.925 263.5,190C 261.353,192.084 260.686,194.417 261.5,197C 260.402,199.46 259.402,201.96 258.5,204.5C 259.471,205.962 259.138,207.295 257.5,208.5C 258.52,210.432 258.687,212.432 258,214.5C 257,214.5 256,214.5 255,214.5C 252.41,218.057 251.91,221.89 253.5,226C 253.167,226.167 252.833,226.333 252.5,226.5C 251.719,225.271 251.219,223.938 251,222.5C 250.5,223 250,223.5 249.5,224C 250.885,225.965 250.718,227.798 249,229.5C 248.667,228.5 248.333,227.5 248,226.5C 247.215,228.286 246.049,229.786 244.5,231C 245.672,232.868 245.505,234.702 244,236.5C 243.131,231.492 242.464,231.825 242,237.5C 241.396,235.314 240.23,235.148 238.5,237C 237.137,238.945 236.303,241.112 236,243.5C 235.577,242.044 234.744,241.544 233.5,242C 230.833,244 228.167,246 225.5,248C 226.167,248.333 226.833,248.667 227.5,249C 226.072,252.109 224.405,252.609 222.5,250.5C 213.22,255.827 203.22,259.327 192.5,261C 197.059,261.311 197.392,262.145 193.5,263.5C 191.682,262.364 189.682,261.697 187.5,261.5C 178.444,263.187 169.444,262.52 160.5,259.5C 159.584,259.543 158.917,259.876 158.5,260.5C 155.011,258.467 151.344,256.8 147.5,255.5C 146.378,256.63 145.044,257.297 143.5,257.5C 143.082,256.778 142.416,256.278 141.5,256C 142.833,255.667 144.167,255.333 145.5,255C 143.559,254.696 141.893,253.863 140.5,252.5C 139.264,253.246 137.93,253.579 136.5,253.5C 136.167,253.5 135.833,253.5 135.5,253.5C 134.398,251.908 135.065,251.075 137.5,251C 133.355,248.513 129.522,245.679 126,242.5C 124.989,243.337 123.822,243.67 122.5,243.5C 122.167,243.5 121.833,243.5 121.5,243.5C 120.859,242.518 120.193,241.518 119.5,240.5C 120.025,239.808 120.692,239.308 121.5,239C 118.5,235.333 115.5,231.667 112.5,228C 111.167,227.667 109.833,227.333 108.5,227C 109.167,226.667 109.833,226.333 110.5,226C 105.058,217.949 100.891,208.782 98,198.5C 97.7679,199.737 97.2679,200.737 96.5,201.5C 95.6569,199.155 95.9902,196.822 97.5,194.5C 97.1866,189.46 96.1866,184.627 94.5,180C 95.3802,178.644 95.7135,177.144 95.5,175.5C 95.9839,169.727 96.9839,163.727 98.5,157.5C 98.4573,156.584 98.1239,155.917 97.5,155.5C 98.9603,154.807 100.127,153.141 101,150.5C 101.684,149.216 101.517,148.049 100.5,147C 101.416,146.626 102.25,146.126 103,145.5C 104.656,141.037 106.489,136.704 108.5,132.5C 111.652,130.18 114.318,127.347 116.5,124C 115.62,122.644 115.286,121.144 115.5,119.5C 117.331,120.052 118.997,120.052 120.5,119.5C 121.016,116.749 122.183,114.416 124,112.5C 123.014,117.188 123.848,117.522 126.5,113.5C 130.157,111.337 133.824,109.171 137.5,107C 138.893,105.829 139.727,104.329 140,102.5C 140.308,103.308 140.808,103.975 141.5,104.5C 144.932,102.52 148.598,101.02 152.5,100C 150.519,99.3946 150.185,98.3946 151.5,97C 153.464,96.376 155.131,96.876 156.5,98.5C 157.425,97.6431 158.092,96.6431 158.5,95.5C 159.265,95.0766 160.098,94.7432 161,94.5C 162.52,95.5067 164.187,96.1734 166,96.5C 173.854,95.4116 181.521,94.7449 189,94.5C 191.595,96.077 194.429,97.077 197.5,97.5 Z"/></g>
<g><path style="opacity:1" fill="#c53f42" d="M 321.5,81.5 C 324.41,88.4616 326.41,95.7949 327.5,103.5C 326.069,103.119 325.236,102.119 325,100.5C 323.727,94.1823 322.56,87.849 321.5,81.5 Z"/></g>
<g><path style="opacity:1" fill="#6a6a6a" d="M 295.5,99.5 C 301.555,98.9421 302.888,101.109 299.5,106C 294.791,106.082 293.458,103.915 295.5,99.5 Z"/></g>
<g><path style="opacity:1" fill="#e5e5e5" d="M 223.5,107.5 C 221.86,106.68 220.193,105.847 218.5,105C 219.308,104.692 219.975,104.192 220.5,103.5C 218.865,102.319 217.198,102.319 215.5,103.5C 214.692,103.192 214.025,102.692 213.5,102C 215.167,101.667 216.833,101.333 218.5,101C 215.607,100.727 212.94,99.8932 210.5,98.5C 209.214,98.8515 208.381,99.5182 208,100.5C 204.739,98.8112 201.239,97.8112 197.5,97.5C 197.918,96.7784 198.584,96.2784 199.5,96C 198.167,95.3333 196.833,94.6667 195.5,94C 196.667,93.5 197.5,92.6667 198,91.5C 198.308,92.3081 198.808,92.9747 199.5,93.5C 199.998,92.3966 200.331,91.3966 200.5,90.5C 201.795,91.0983 203.128,91.5983 204.5,92C 203.5,92.3333 202.5,92.6667 201.5,93C 203.579,94.6398 205.912,95.8064 208.5,96.5C 208.5,95.1667 208.5,93.8333 208.5,92.5C 212.413,93.4499 215.08,95.7833 216.5,99.5C 216.669,98.6034 217.002,97.6034 217.5,96.5C 221.033,97.8668 223.366,100.367 224.5,104C 220.774,105.043 221.107,105.543 225.5,105.5C 223.504,100.272 224.504,99.4388 228.5,103C 226.875,103.853 226.542,104.853 227.5,106C 225.942,106.21 224.609,106.71 223.5,107.5 Z"/></g>
<g><path style="opacity:1" fill="#737376" d="M 59.5,98.5 C 62.3523,98.3524 64.019,99.6857 64.5,102.5C 62.1667,107.833 59.8333,107.833 57.5,102.5C 57.7517,100.927 58.4183,99.5938 59.5,98.5 Z"/></g>
<g><path style="opacity:1" fill="#e6e6e6" d="M 158.5,95.5 C 158.092,96.6431 157.425,97.6431 156.5,98.5C 155.131,96.876 153.464,96.376 151.5,97C 150.185,98.3946 150.519,99.3946 152.5,100C 148.598,101.02 144.932,102.52 141.5,104.5C 140.808,103.975 140.308,103.308 140,102.5C 139.727,104.329 138.893,105.829 137.5,107C 133.824,109.171 130.157,111.337 126.5,113.5C 123.848,117.522 123.014,117.188 124,112.5C 122.183,114.416 121.016,116.749 120.5,119.5C 118.997,120.052 117.331,120.052 115.5,119.5C 115.672,118.508 115.338,117.842 114.5,117.5C 116.389,116.678 118.389,115.845 120.5,115C 119.167,114.667 117.833,114.333 116.5,114C 120.004,111.194 123.67,109.694 127.5,109.5C 125.922,108.702 124.256,108.202 122.5,108C 123.416,107.626 124.25,107.126 125,106.5C 128.362,107.865 131.195,107.032 133.5,104C 132.167,103.667 130.833,103.333 129.5,103C 131.649,101.836 133.815,100.67 136,99.5C 140.703,101.004 144.869,100.004 148.5,96.5C 147.624,95.7492 146.624,95.2492 145.5,95C 147.339,93.8684 149.339,93.0351 151.5,92.5C 153.78,93.7019 156.114,94.7019 158.5,95.5 Z"/></g>
<g><path style="opacity:1" fill="#68686b" d="M 271.5,102.5 C 277.512,102.681 280.678,105.681 281,111.5C 280.333,112.167 279.667,112.833 279,113.5C 277.95,110.76 276.117,109.26 273.5,109C 272.633,111.316 273.299,113.316 275.5,115C 274.646,116.022 273.646,116.855 272.5,117.5C 270.867,115.497 268.867,114.164 266.5,113.5C 266.04,117.878 267.873,120.878 272,122.5C 276.022,119.652 280.189,116.985 284.5,114.5C 285.974,115.436 286.974,116.77 287.5,118.5C 284.233,121.806 280.567,124.639 276.5,127C 274.635,128.301 272.635,128.635 270.5,128C 264.95,124.893 261.616,120.226 260.5,114C 260.628,109.373 262.961,107.539 267.5,108.5C 267.657,105.682 268.991,103.682 271.5,102.5 Z"/></g>
<g><path style="opacity:1" fill="#69686b" d="M 85.5,97.5 C 90.6154,99.426 95.1154,102.426 99,106.5C 101.962,114.074 99.4623,118.908 91.5,121C 93.9833,123.796 93.3166,125.963 89.5,127.5C 84.1272,123.156 78.7939,118.823 73.5,114.5C 74.5,113.167 75.5,111.833 76.5,110.5C 79.6397,112.473 82.6397,114.64 85.5,117C 91.3375,118.48 94.1708,116.313 94,110.5C 90.8492,107.593 87.5159,104.926 84,102.5C 83.8782,100.718 84.3782,99.0518 85.5,97.5 Z"/></g>
<g><path style="opacity:1" fill="#646367" d="M 180.5,119.5 C 179.833,119.5 179.167,119.5 178.5,119.5C 179.167,103.5 179.833,103.5 180.5,119.5 Z"/></g>
<g><path style="opacity:1" fill="#696a6c" d="M 302.5,111.5 C 308.555,110.942 309.888,113.109 306.5,118C 301.791,118.082 300.458,115.915 302.5,111.5 Z"/></g>
<g><path style="opacity:1" fill="#6b6b6e" d="M 51.5,111.5 C 57.5548,110.942 58.8881,113.109 55.5,118C 50.7915,118.082 49.4582,115.915 51.5,111.5 Z"/></g>
<g><path style="opacity:1" fill="#7c7c7d" d="M 114.5,117.5 C 115.338,117.842 115.672,118.508 115.5,119.5C 109.442,120.94 109.109,120.274 114.5,117.5 Z"/></g>
<g><path style="opacity:1" fill="#d66a6d" d="M 174.5,120.5 C 175.568,119.566 176.901,119.232 178.5,119.5C 179.167,119.5 179.833,119.5 180.5,119.5C 182.144,119.286 183.644,119.62 185,120.5C 185.495,122.473 185.662,124.473 185.5,126.5C 184.766,125.122 184.099,123.622 183.5,122C 180.568,121.047 177.568,120.547 174.5,120.5 Z"/></g>
<g><path style="opacity:1" fill="#cd3338" d="M 327.5,103.5 C 328.871,107.655 330.038,111.988 331,116.5C 334.776,122.391 338.276,128.391 341.5,134.5C 340.022,134.762 338.689,134.429 337.5,133.5C 338.615,132.402 338.615,131.235 337.5,130C 335.657,126.816 333.491,124.649 331,123.5C 328.878,117.01 327.712,110.343 327.5,103.5 Z"/></g>
<g><path style="opacity:1" fill="#c3363f" d="M 222.5,126.5 C 222.5,127.167 222.5,127.833 222.5,128.5C 221.407,130.349 220.074,132.016 218.5,133.5C 218.229,131.179 218.896,129.179 220.5,127.5C 218.707,124.803 216.374,124.136 213.5,125.5C 212.103,127.982 211.269,130.648 211,133.5C 210.296,131.273 209.129,130.94 207.5,132.5C 207.733,130.938 208.4,129.605 209.5,128.5C 209.5,127.833 209.5,127.167 209.5,126.5C 211.433,125.358 212.933,123.692 214,121.5C 216.979,123.067 219.812,124.734 222.5,126.5 Z"/></g>
<g><path style="opacity:1" fill="#cbcbcc" d="M 152.5,112.5 C 153.209,111.596 154.209,111.263 155.5,111.5C 155.5,116.167 155.5,120.833 155.5,125.5C 161.358,125.178 167.025,125.511 172.5,126.5C 166.5,126.5 160.5,126.5 154.5,126.5C 155.103,121.381 154.436,116.715 152.5,112.5 Z"/></g>
<g><path style="opacity:1" fill="#c63c41" d="M 317.5,111.5 C 318.458,111.953 319.292,112.619 320,113.5C 323.941,122.824 326.774,132.491 328.5,142.5C 325.446,132.007 321.779,121.674 317.5,111.5 Z"/></g>
<g><path style="opacity:1" fill="#8c8c8e" d="M 109.5,123.5 C 110.776,124.386 110.776,125.386 109.5,126.5C 108.232,127.428 106.899,127.595 105.5,127C 107.093,126.051 108.426,124.885 109.5,123.5 Z"/></g>
<g><path style="opacity:1" fill="#757374" d="M 152.5,112.5 C 154.436,116.715 155.103,121.381 154.5,126.5C 160.5,126.5 166.5,126.5 172.5,126.5C 172.833,126.5 173.167,126.5 173.5,126.5C 173.5,127.167 173.5,127.833 173.5,128.5C 167.5,128.5 161.5,128.5 155.5,128.5C 155.5,136.167 155.5,143.833 155.5,151.5C 161.5,151.5 167.5,151.5 173.5,151.5C 173.389,152.117 173.056,152.617 172.5,153C 165.848,154.031 159.181,154.865 152.5,155.5C 148.849,154.835 145.015,154.501 141,154.5C 136.771,154.51 132.938,155.177 129.5,156.5C 128.5,156.5 127.5,156.5 126.5,156.5C 122.627,154.57 118.294,153.903 113.5,154.5C 113.5,153.5 113.5,152.5 113.5,151.5C 117.833,151.5 122.167,151.5 126.5,151.5C 126.5,143.833 126.5,136.167 126.5,128.5C 121.167,127.833 121.167,127.167 126.5,126.5C 126.5,124.5 126.5,122.5 126.5,120.5C 127.5,120.5 128.5,120.5 129.5,120.5C 129.5,122.5 129.5,124.5 129.5,126.5C 137.167,126.5 144.833,126.5 152.5,126.5C 152.5,121.833 152.5,117.167 152.5,112.5 Z"/></g>
<g><path style="opacity:1" fill="#68696b" d="M 46.5,123.5 C 50.9764,123.8 52.3097,125.967 50.5,130C 44.3389,130.878 43.0055,128.711 46.5,123.5 Z"/></g>
<g><path style="opacity:1" fill="#666364" d="M 209.5,126.5 C 209.5,127.167 209.5,127.833 209.5,128.5C 208.5,128.5 207.5,128.5 206.5,128.5C 206.5,129.833 206.5,131.167 206.5,132.5C 206.167,133.5 205.5,134.167 204.5,134.5C 204.5,132.5 204.5,130.5 204.5,128.5C 198.167,128.5 191.833,128.5 185.5,128.5C 185.5,127.833 185.5,127.167 185.5,126.5C 191.833,126.5 198.167,126.5 204.5,126.5C 205.167,107.833 205.833,107.833 206.5,126.5C 207.5,126.5 208.5,126.5 209.5,126.5 Z"/></g>
<g><path style="opacity:1" fill="#c8383d" d="M 26.5,119.5 C 26.6567,120.873 26.49,122.207 26,123.5C 23.6014,126.617 21.4347,129.95 19.5,133.5C 18.6431,134.425 17.6431,135.092 16.5,135.5C 19.3359,129.822 22.6692,124.489 26.5,119.5 Z"/></g>
<g><path style="opacity:1" fill="#717072" d="M 308.5,124.5 C 314.555,123.942 315.888,126.109 312.5,131C 307.791,131.082 306.458,128.915 308.5,124.5 Z"/></g>
<g><path style="opacity:1" fill="#fdfdfd" d="M 129.5,128.5 C 137.167,128.5 144.833,128.5 152.5,128.5C 152.5,136.167 152.5,143.833 152.5,151.5C 144.833,151.5 137.167,151.5 129.5,151.5C 129.5,143.833 129.5,136.167 129.5,128.5 Z"/></g>
<g><path style="opacity:1" fill="#fdf8f7" d="M 173.5,128.5 C 174.833,136.167 174.833,143.833 173.5,151.5C 167.5,151.5 161.5,151.5 155.5,151.5C 155.5,143.833 155.5,136.167 155.5,128.5C 161.5,128.5 167.5,128.5 173.5,128.5 Z"/></g>
<g><path style="opacity:1" fill="#fdfbfb" d="M 222.5,128.5 C 224.833,128.5 227.167,128.5 229.5,128.5C 229.5,136.167 229.5,143.833 229.5,151.5C 221.833,151.5 214.167,151.5 206.5,151.5C 206.5,150.167 206.5,148.833 206.5,147.5C 211.617,143.722 215.617,139.055 218.5,133.5C 220.074,132.016 221.407,130.349 222.5,128.5 Z"/></g>
<g><path style="opacity:1" fill="#7d7d7d" d="M 104.5,130.5 C 105.776,131.386 105.776,132.386 104.5,133.5C 103.313,134.653 102.313,134.653 101.5,133.5C 102.833,132.833 103.833,131.833 104.5,130.5 Z"/></g>
<g><path style="opacity:1" fill="#e2e2e2" d="M 108.5,132.5 C 106.489,136.704 104.656,141.037 103,145.5C 102.25,146.126 101.416,146.626 100.5,147C 101.517,148.049 101.684,149.216 101,150.5C 100.127,153.141 98.9603,154.807 97.5,155.5C 96.0783,155.291 94.745,154.791 93.5,154C 95.9232,153.268 97.0899,151.768 97,149.5C 95.6132,151.301 94.1132,151.968 92.5,151.5C 94.4639,148.508 95.6306,145.508 96,142.5C 98.3336,141.141 100.167,139.307 101.5,137C 98.9824,135.86 98.9824,134.694 101.5,133.5C 102.313,134.653 103.313,134.653 104.5,133.5C 105.776,132.386 105.776,131.386 104.5,130.5C 107.698,127.316 109.031,127.983 108.5,132.5 Z"/></g>
<g><path style="opacity:1" fill="#6d6f72" d="M 41.5,137.5 C 47.0159,137.473 48.3492,139.64 45.5,144C 40.5705,144.427 39.2372,142.26 41.5,137.5 Z"/></g>
<g><path style="opacity:1" fill="#c1383b" d="M 32.5,133.5 C 27.1323,152.44 25.1323,171.774 26.5,191.5C 24.6232,174.058 25.6232,156.725 29.5,139.5C 30.2082,137.255 31.2082,135.255 32.5,133.5 Z"/></g>
<g><path style="opacity:1" fill="#69696c" d="M 313.5,137.5 C 318.328,137.385 319.661,139.552 317.5,144C 311.738,144.418 310.404,142.251 313.5,137.5 Z"/></g>
<g><path style="opacity:1" fill="#f08e93" d="M 73.5,138.5 C 73.56,137.957 73.8933,137.624 74.5,137.5C 75.8111,141.984 75.8111,146.317 74.5,150.5C 74.8168,146.298 74.4834,142.298 73.5,138.5 Z"/></g>
<g><path style="opacity:1" fill="#c84c53" d="M 287.5,143.5 C 285.437,142.289 284.437,143.123 284.5,146C 284.696,147.878 285.029,149.712 285.5,151.5C 284.833,151.167 284.167,150.833 283.5,150.5C 283.176,146.445 283.509,142.445 284.5,138.5C 285.952,139.94 286.952,141.606 287.5,143.5 Z"/></g>
<g><path style="opacity:1" fill="#cc2e32" d="M 287.5,143.5 C 289.262,144.262 290.262,145.596 290.5,147.5C 290.61,150.059 289.944,152.392 288.5,154.5C 287.145,153.812 286.145,152.812 285.5,151.5C 285.029,149.712 284.696,147.878 284.5,146C 284.437,143.123 285.437,142.289 287.5,143.5 Z"/></g>
<g><path style="opacity:1" fill="#cc2f34" d="M 73.5,138.5 C 74.4834,142.298 74.8168,146.298 74.5,150.5C 74.1667,151.167 73.8333,151.833 73.5,152.5C 72.5178,153.141 71.5178,153.807 70.5,154.5C 68.7711,152.149 68.1044,149.482 68.5,146.5C 70.1667,143.833 71.8333,141.167 73.5,138.5 Z"/></g>
<g><path style="opacity:1" fill="#d7232a" d="M 191.5,145.5 C 196.127,142.209 200.46,138.542 204.5,134.5C 205.5,134.167 206.167,133.5 206.5,132.5C 206.833,132.5 207.167,132.5 207.5,132.5C 209.129,130.94 210.296,131.273 211,133.5C 211.269,130.648 212.103,127.982 213.5,125.5C 216.374,124.136 218.707,124.803 220.5,127.5C 218.896,129.179 218.229,131.179 218.5,133.5C 215.617,139.055 211.617,143.722 206.5,147.5C 205.29,147.932 204.29,148.599 203.5,149.5C 202.128,150.512 200.795,151.512 199.5,152.5C 198.833,153.167 198.167,153.833 197.5,154.5C 195.035,154.767 192.701,155.434 190.5,156.5C 187.092,155.828 184.425,156.828 182.5,159.5C 181.029,158.619 180.196,157.286 180,155.5C 179.257,157.645 178.424,157.811 177.5,156C 176.532,144.872 176.199,133.706 176.5,122.5C 178.5,122.5 180.5,122.5 182.5,122.5C 182.5,131.167 182.5,139.833 182.5,148.5C 185.247,148.813 187.914,148.48 190.5,147.5C 190.863,146.817 191.196,146.15 191.5,145.5 Z"/></g>
<g><path style="opacity:1" fill="#f4d6d6" d="M 209.5,128.5 C 208.4,129.605 207.733,130.938 207.5,132.5C 207.167,132.5 206.833,132.5 206.5,132.5C 206.5,131.167 206.5,129.833 206.5,128.5C 207.5,128.5 208.5,128.5 209.5,128.5 Z"/></g>
<g><path style="opacity:1" fill="#fcf2f2" d="M 185.5,128.5 C 191.833,128.5 198.167,128.5 204.5,128.5C 204.5,130.5 204.5,132.5 204.5,134.5C 200.46,138.542 196.127,142.209 191.5,145.5C 189.254,146.455 186.921,147.122 184.5,147.5C 184.177,140.978 184.51,134.645 185.5,128.5 Z"/></g>
<g><path style="opacity:1" fill="#fac1c3" d="M 290.5,147.5 C 291.5,148.5 292.5,149.5 293.5,150.5C 292.275,151.152 291.608,152.319 291.5,154C 291.127,156.617 292.127,158.45 294.5,159.5C 295.466,157.604 295.799,155.604 295.5,153.5C 296.571,159.212 296.238,164.878 294.5,170.5C 295.611,165.151 294.111,160.818 290,157.5C 288.384,160.824 288.217,164.157 289.5,167.5C 287.972,166.198 286.972,164.531 286.5,162.5C 288.704,157.638 287.371,154.305 282.5,152.5C 282.833,151.833 283.167,151.167 283.5,150.5C 284.167,150.833 284.833,151.167 285.5,151.5C 286.145,152.812 287.145,153.812 288.5,154.5C 289.944,152.392 290.61,150.059 290.5,147.5 Z"/></g>
<g><path style="opacity:1" fill="#c6acb1" d="M 203.5,149.5 C 204.404,150.209 204.737,151.209 204.5,152.5C 202.833,152.5 201.167,152.5 199.5,152.5C 200.795,151.512 202.128,150.512 203.5,149.5 Z"/></g>
<g><path style="opacity:1" fill="#a8a7aa" d="M 229.5,128.5 C 230.492,136.316 230.826,144.316 230.5,152.5C 222.316,152.826 214.316,152.492 206.5,151.5C 214.167,151.5 221.833,151.5 229.5,151.5C 229.5,143.833 229.5,136.167 229.5,128.5 Z"/></g>
<g><path style="opacity:1" fill="#6e6e6e" d="M 39.5,150.5 C 43.4735,151.075 44.4735,153.242 42.5,157C 38.3195,158.12 36.4862,156.62 37,152.5C 37.9947,151.934 38.828,151.267 39.5,150.5 Z"/></g>
<g><path style="opacity:1" fill="#ca2a31" d="M 174.5,120.5 C 177.568,120.547 180.568,121.047 183.5,122C 184.099,123.622 184.766,125.122 185.5,126.5C 185.5,127.167 185.5,127.833 185.5,128.5C 184.51,134.645 184.177,140.978 184.5,147.5C 186.921,147.122 189.254,146.455 191.5,145.5C 191.196,146.15 190.863,146.817 190.5,147.5C 187.914,148.48 185.247,148.813 182.5,148.5C 182.5,139.833 182.5,131.167 182.5,122.5C 180.5,122.5 178.5,122.5 176.5,122.5C 176.199,133.706 176.532,144.872 177.5,156C 178.424,157.811 179.257,157.645 180,155.5C 180.196,157.286 181.029,158.619 182.5,159.5C 184.425,156.828 187.092,155.828 190.5,156.5C 189.07,157.537 187.403,158.204 185.5,158.5C 184.513,163.305 184.179,168.305 184.5,173.5C 182.829,170.392 181.829,166.892 181.5,163C 180.551,162.383 179.718,162.549 179,163.5C 178.035,161.74 176.868,161.406 175.5,162.5C 176.154,164.115 176.654,165.782 177,167.5C 178.813,166.391 179.646,167.058 179.5,169.5C 178.5,169.5 177.5,169.5 176.5,169.5C 176.771,171.38 176.104,172.713 174.5,173.5C 174.5,169.833 174.5,166.167 174.5,162.5C 173.5,162.5 172.5,162.5 171.5,162.5C 170.833,162.5 170.167,162.5 169.5,162.5C 170.911,160.461 172.911,159.461 175.5,159.5C 175.5,158.167 175.5,156.833 175.5,155.5C 157.27,158.053 138.937,159.053 120.5,158.5C 128.167,157.833 135.833,157.167 143.5,156.5C 146.713,156.81 149.713,156.477 152.5,155.5C 159.181,154.865 165.848,154.031 172.5,153C 173.056,152.617 173.389,152.117 173.5,151.5C 174.833,143.833 174.833,136.167 173.5,128.5C 173.5,127.833 173.5,127.167 173.5,126.5C 174.461,124.735 174.795,122.735 174.5,120.5 Z"/></g>
<g><path style="opacity:1" fill="#6d6c6e" d="M 232.5,172.5 C 231.5,172.5 230.5,172.5 229.5,172.5C 229.5,166.5 229.5,160.5 229.5,154.5C 221.833,154.5 214.167,154.5 206.5,154.5C 206.5,160.5 206.5,166.5 206.5,172.5C 205.833,172.5 205.167,172.5 204.5,172.5C 204.5,166.5 204.5,160.5 204.5,154.5C 202.167,154.5 199.833,154.5 197.5,154.5C 198.167,153.833 198.833,153.167 199.5,152.5C 201.167,152.5 202.833,152.5 204.5,152.5C 204.737,151.209 204.404,150.209 203.5,149.5C 204.29,148.599 205.29,147.932 206.5,147.5C 206.5,148.833 206.5,150.167 206.5,151.5C 214.316,152.492 222.316,152.826 230.5,152.5C 230.826,144.316 230.492,136.316 229.5,128.5C 227.167,128.5 224.833,128.5 222.5,128.5C 222.5,127.833 222.5,127.167 222.5,126.5C 224.833,126.5 227.167,126.5 229.5,126.5C 229.5,124.5 229.5,122.5 229.5,120.5C 230.5,120.5 231.5,120.5 232.5,120.5C 232.5,122.5 232.5,124.5 232.5,126.5C 239.167,127.167 239.167,127.833 232.5,128.5C 232.5,136.167 232.5,143.833 232.5,151.5C 237.167,151.5 241.833,151.5 246.5,151.5C 246.5,152.5 246.5,153.5 246.5,154.5C 241.833,154.5 237.167,154.5 232.5,154.5C 232.5,160.5 232.5,166.5 232.5,172.5 Z"/></g>
<g><path style="opacity:1" fill="#faf8f8" d="M 197.5,154.5 C 199.833,154.5 202.167,154.5 204.5,154.5C 204.5,160.5 204.5,166.5 204.5,172.5C 198.167,172.5 191.833,172.5 185.5,172.5C 185.5,167.833 185.5,163.167 185.5,158.5C 187.403,158.204 189.07,157.537 190.5,156.5C 192.701,155.434 195.035,154.767 197.5,154.5 Z"/></g>
<g><path style="opacity:1" fill="#fdfdfd" d="M 229.5,172.5 C 221.833,172.5 214.167,172.5 206.5,172.5C 206.5,166.5 206.5,160.5 206.5,154.5C 214.167,154.5 221.833,154.5 229.5,154.5C 229.5,160.5 229.5,166.5 229.5,172.5 Z"/></g>
<g><path style="opacity:1" fill="#c72e35" d="M 293.5,150.5 C 294.167,151.5 294.833,152.5 295.5,153.5C 295.799,155.604 295.466,157.604 294.5,159.5C 292.127,158.45 291.127,156.617 291.5,154C 291.608,152.319 292.275,151.152 293.5,150.5 Z"/></g>
<g><path style="opacity:1" fill="#6c6d6f" d="M 315.5,151.5 C 320.123,150.408 321.956,152.075 321,156.5C 315.42,158.752 313.587,157.085 315.5,151.5 Z"/></g>
<g><path style="opacity:1" fill="#c94045" d="M 67.5,150.5 C 67.6633,152.857 67.4966,155.19 67,157.5C 66.1841,158.823 65.0174,159.489 63.5,159.5C 61.4174,155.067 62.7507,152.067 67.5,150.5 Z"/></g>
<g><path style="opacity:1" fill="#fcc8c8" d="M 68.5,146.5 C 68.1044,149.482 68.7711,152.149 70.5,154.5C 71.5178,153.807 72.5178,153.141 73.5,152.5C 73.8333,152.5 74.1667,152.5 74.5,152.5C 73.3515,154.149 72.0182,155.649 70.5,157C 70.5699,157.765 70.9033,158.265 71.5,158.5C 71.1568,160.483 71.8235,161.817 73.5,162.5C 72.5,163.5 71.5,164.5 70.5,165.5C 70.5793,162.729 70.0793,160.063 69,157.5C 67.6288,159.041 66.1288,160.375 64.5,161.5C 64.1667,160.833 63.8333,160.167 63.5,159.5C 65.0174,159.489 66.1841,158.823 67,157.5C 67.4966,155.19 67.6633,152.857 67.5,150.5C 67.2322,148.901 67.5655,147.568 68.5,146.5 Z"/></g>
<g><path style="opacity:1" fill="#fff3f6" d="M 152.5,155.5 C 149.713,156.477 146.713,156.81 143.5,156.5C 138.833,156.5 134.167,156.5 129.5,156.5C 132.938,155.177 136.771,154.51 141,154.5C 145.015,154.501 148.849,154.835 152.5,155.5 Z"/></g>
<g><path style="opacity:1" fill="#c9494c" d="M 7.5,153.5 C 6.37115,158.887 4.70448,163.887 2.5,168.5C 2.7976,162.948 4.46427,157.948 7.5,153.5 Z"/></g>
<g><path style="opacity:1" fill="#c55156" d="M 74.5,152.5 C 75.6935,152.97 76.3601,153.97 76.5,155.5C 76.4805,156.726 76.1471,157.726 75.5,158.5C 75.719,157.325 75.3857,156.325 74.5,155.5C 73.265,156.34 72.265,157.34 71.5,158.5C 70.9033,158.265 70.5699,157.765 70.5,157C 72.0182,155.649 73.3515,154.149 74.5,152.5 Z"/></g>
<g><path style="opacity:1" fill="#c6383e" d="M 282.5,152.5 C 287.371,154.305 288.704,157.638 286.5,162.5C 283.083,160.109 281.75,156.775 282.5,152.5 Z"/></g>
<g><path style="opacity:1" fill="#cf3135" d="M 349.5,148.5 C 356.149,160.082 358.482,172.415 356.5,185.5C 356.666,180.821 356.499,176.155 356,171.5C 352.656,168.218 351.156,164.218 351.5,159.5C 350.167,159.5 348.833,159.5 347.5,159.5C 347.343,158.127 347.51,156.793 348,155.5C 349.342,156.902 350.176,156.569 350.5,154.5C 349.844,152.547 349.511,150.547 349.5,148.5 Z"/></g>
<g><path style="opacity:1" fill="#d0313a" d="M 75.5,158.5 C 74.8333,159.833 74.1667,161.167 73.5,162.5C 71.8235,161.817 71.1568,160.483 71.5,158.5C 72.265,157.34 73.265,156.34 74.5,155.5C 75.3857,156.325 75.719,157.325 75.5,158.5 Z"/></g>
<g><path style="opacity:1" fill="#d92028" d="M 169.5,162.5 C 153.365,165.633 137.032,166.966 120.5,166.5C 120.5,163.833 120.5,161.167 120.5,158.5C 138.937,159.053 157.27,158.053 175.5,155.5C 175.5,156.833 175.5,158.167 175.5,159.5C 172.911,159.461 170.911,160.461 169.5,162.5 Z"/></g>
<g><path style="opacity:1" fill="#c23e42" d="M 70.5,165.5 C 70.5,166.167 70.1667,166.5 69.5,166.5C 69.628,164.345 69.128,162.345 68,160.5C 67.6322,161.91 66.7989,162.91 65.5,163.5C 64.5258,165.743 64.1924,168.076 64.5,170.5C 65.5,170.5 66.5,170.5 67.5,170.5C 66.3832,173.279 65.2166,173.612 64,171.5C 63.2534,168.076 63.42,164.743 64.5,161.5C 66.1288,160.375 67.6288,159.041 69,157.5C 70.0793,160.063 70.5793,162.729 70.5,165.5 Z"/></g>
<g><path style="opacity:1" fill="#e4e4e4" d="M 262.5,171.5 C 262.681,168.603 262.348,165.77 261.5,163C 261.667,162.5 261.833,162 262,161.5C 262.419,162.672 263.085,163.672 264,164.5C 264.167,164 264.333,163.5 264.5,163C 263.935,160.702 262.768,159.869 261,160.5C 260.833,159.667 260.667,158.833 260.5,158C 260.539,156.106 261.206,155.106 262.5,155C 261.597,151.933 260.43,151.433 259,153.5C 258.749,151.567 258.249,149.734 257.5,148C 258.308,147.692 258.975,147.192 259.5,146.5C 258.35,143.68 257.184,143.346 256,145.5C 254.604,141.77 252.77,138.27 250.5,135C 251.167,134.667 251.833,134.333 252.5,134C 251.263,133.768 250.263,133.268 249.5,132.5C 251.167,132.5 252.833,132.5 254.5,132.5C 254.343,133.873 254.51,135.207 255,136.5C 255.202,134.744 255.702,133.078 256.5,131.5C 260.156,136.408 261.656,141.742 261,147.5C 261.333,147.167 261.667,146.833 262,146.5C 262.359,149.544 263.026,149.878 264,147.5C 265.44,148.93 265.774,150.597 265,152.5C 263.997,150.065 263.497,150.398 263.5,153.5C 264.563,157.648 265.563,161.815 266.5,166C 264.534,167.465 263.201,169.298 262.5,171.5 Z"/></g>
<g><path style="opacity:1" fill="#ca2d32" d="M 294.5,170.5 C 294.649,171.552 294.483,172.552 294,173.5C 292.248,171.649 290.748,169.649 289.5,167.5C 288.217,164.157 288.384,160.824 290,157.5C 294.111,160.818 295.611,165.151 294.5,170.5 Z"/></g>
<g><path style="opacity:1" fill="#d97277" d="M 126.5,156.5 C 127.5,156.5 128.5,156.5 129.5,156.5C 134.167,156.5 138.833,156.5 143.5,156.5C 135.833,157.167 128.167,157.833 120.5,158.5C 120.5,161.167 120.5,163.833 120.5,166.5C 120.5,166.833 120.5,167.167 120.5,167.5C 119.518,164.038 119.185,160.371 119.5,156.5C 121.833,156.5 124.167,156.5 126.5,156.5 Z"/></g>
<g><path style="opacity:1" fill="#fcf5f4" d="M 171.5,163.5 C 173.388,165.988 174.055,168.988 173.5,172.5C 167.167,172.5 160.833,172.5 154.5,172.5C 154.5,170.5 154.5,168.5 154.5,166.5C 160.054,165.03 165.721,164.03 171.5,163.5 Z"/></g>
<g><path style="opacity:1" fill="#cf2833" d="M 69.5,166.5 C 68.8333,167.833 68.1667,169.167 67.5,170.5C 66.5,170.5 65.5,170.5 64.5,170.5C 64.1924,168.076 64.5258,165.743 65.5,163.5C 66.7989,162.91 67.6322,161.91 68,160.5C 69.128,162.345 69.628,164.345 69.5,166.5 Z"/></g>
<g><path style="opacity:1" fill="#c34046" d="M 169.5,162.5 C 170.167,162.5 170.833,162.5 171.5,162.5C 171.5,162.833 171.5,163.167 171.5,163.5C 165.721,164.03 160.054,165.03 154.5,166.5C 153.833,166.5 153.167,166.5 152.5,166.5C 144.868,167.358 137.201,167.691 129.5,167.5C 128.5,167.5 127.5,167.5 126.5,167.5C 124.5,167.5 122.5,167.5 120.5,167.5C 120.5,167.167 120.5,166.833 120.5,166.5C 137.032,166.966 153.365,165.633 169.5,162.5 Z"/></g>
<g><path style="opacity:1" fill="#6b6d6d" d="M 318.5,164.5 C 321.352,164.352 323.019,165.686 323.5,168.5C 321.167,173.833 318.833,173.833 316.5,168.5C 316.752,166.927 317.418,165.594 318.5,164.5 Z"/></g>
<g><path style="opacity:1" fill="#69686d" d="M 36.5,164.5 C 41.2137,164.201 42.8804,166.201 41.5,170.5C 35.7403,172.213 34.0736,170.213 36.5,164.5 Z"/></g>
<g><path style="opacity:1" fill="#8c8c8c" d="M 91.5,163.5 C 92.4778,163.811 93.1445,164.478 93.5,165.5C 92.5197,166.981 91.353,168.315 90,169.5C 90.5948,167.65 91.0948,165.65 91.5,163.5 Z"/></g>
<g><path style="opacity:1" fill="#fef9f9" d="M 152.5,166.5 C 152.5,168.5 152.5,170.5 152.5,172.5C 144.833,172.5 137.167,172.5 129.5,172.5C 129.5,170.833 129.5,169.167 129.5,167.5C 137.201,167.691 144.868,167.358 152.5,166.5 Z"/></g>
<g><path style="opacity:1" fill="#6e6265" d="M 152.5,166.5 C 153.167,166.5 153.833,166.5 154.5,166.5C 154.5,168.5 154.5,170.5 154.5,172.5C 153.833,172.5 153.167,172.5 152.5,172.5C 152.5,170.5 152.5,168.5 152.5,166.5 Z"/></g>
<g><path style="opacity:1" fill="#876e6c" d="M 126.5,167.5 C 127.5,167.5 128.5,167.5 129.5,167.5C 129.5,169.167 129.5,170.833 129.5,172.5C 129.5,172.833 129.5,173.167 129.5,173.5C 128.5,173.5 127.5,173.5 126.5,173.5C 126.5,173.167 126.5,172.833 126.5,172.5C 126.5,170.833 126.5,169.167 126.5,167.5 Z"/></g>
<g><path style="opacity:1" fill="#f09fa3" d="M 171.5,163.5 C 171.5,163.167 171.5,162.833 171.5,162.5C 172.5,162.5 173.5,162.5 174.5,162.5C 174.5,166.167 174.5,169.833 174.5,173.5C 174.167,173.5 173.833,173.5 173.5,173.5C 158.833,173.5 144.167,173.5 129.5,173.5C 129.5,173.167 129.5,172.833 129.5,172.5C 137.167,172.5 144.833,172.5 152.5,172.5C 153.167,172.5 153.833,172.5 154.5,172.5C 160.833,172.5 167.167,172.5 173.5,172.5C 174.055,168.988 173.388,165.988 171.5,163.5 Z"/></g>
<g><path style="opacity:1" fill="#eb9b9f" d="M 185.5,158.5 C 185.5,163.167 185.5,167.833 185.5,172.5C 191.833,172.5 198.167,172.5 204.5,172.5C 205.167,172.5 205.833,172.5 206.5,172.5C 214.167,172.5 221.833,172.5 229.5,172.5C 230.5,172.5 231.5,172.5 232.5,172.5C 234.735,172.205 236.735,172.539 238.5,173.5C 220.833,173.5 203.167,173.5 185.5,173.5C 185.167,173.5 184.833,173.5 184.5,173.5C 184.179,168.305 184.513,163.305 185.5,158.5 Z"/></g>
<g><path style="opacity:1" fill="#c12a32" d="M 126.5,173.5 C 127.5,173.5 128.5,173.5 129.5,173.5C 144.167,173.5 158.833,173.5 173.5,173.5C 156.338,174.332 139.005,174.832 121.5,175C 121.539,177.297 121.872,179.63 122.5,182C 139.672,182.168 156.672,182.668 173.5,183.5C 167.5,183.5 161.5,183.5 155.5,183.5C 154.5,183.5 153.5,183.5 152.5,183.5C 144.833,183.5 137.167,183.5 129.5,183.5C 128.5,183.5 127.5,183.5 126.5,183.5C 124.5,183.5 122.5,183.5 120.5,183.5C 120.5,180.167 120.5,176.833 120.5,173.5C 122.5,173.5 124.5,173.5 126.5,173.5 Z"/></g>
<g><path style="opacity:1" fill="#797979" d="M 90.5,171.5 C 92.8932,173.423 92.7265,175.423 90,177.5C 90.1349,175.575 90.3016,173.575 90.5,171.5 Z"/></g>
<g><path style="opacity:1" fill="#e38488" d="M 126.5,172.5 C 126.5,172.833 126.5,173.167 126.5,173.5C 124.5,173.5 122.5,173.5 120.5,173.5C 120.5,176.833 120.5,180.167 120.5,183.5C 122.5,183.5 124.5,183.5 126.5,183.5C 126.5,183.833 126.5,184.167 126.5,184.5C 124.167,184.5 121.833,184.5 119.5,184.5C 119.5,183.167 119.5,181.833 119.5,180.5C 119.5,179.5 119.5,178.5 119.5,177.5C 119.5,175.833 119.5,174.167 119.5,172.5C 121.833,172.5 124.167,172.5 126.5,172.5 Z"/></g>
<g><path style="opacity:1" fill="#d92129" d="M 184.5,173.5 C 184.833,173.5 185.167,173.5 185.5,173.5C 202.325,174.497 219.325,174.83 236.5,174.5C 236.5,177.167 236.5,179.833 236.5,182.5C 219.325,182.17 202.325,182.503 185.5,183.5C 184.833,183.5 184.5,183.833 184.5,184.5C 183.503,201.325 183.17,218.325 183.5,235.5C 180.881,235.768 178.381,235.435 176,234.5C 175.832,217.328 175.332,200.328 174.5,183.5C 174.167,183.5 173.833,183.5 173.5,183.5C 156.672,182.668 139.672,182.168 122.5,182C 121.872,179.63 121.539,177.297 121.5,175C 139.005,174.832 156.338,174.332 173.5,173.5C 173.833,173.5 174.167,173.5 174.5,173.5C 176.104,172.713 176.771,171.38 176.5,169.5C 177.5,169.5 178.5,169.5 179.5,169.5C 179.646,167.058 178.813,166.391 177,167.5C 176.654,165.782 176.154,164.115 175.5,162.5C 176.868,161.406 178.035,161.74 179,163.5C 179.718,162.549 180.551,162.383 181.5,163C 181.829,166.892 182.829,170.392 184.5,173.5 Z"/></g>
<g><path style="opacity:1" fill="#ba3d41" d="M 332.5,167.5 C 333.166,171.319 333.499,175.319 333.5,179.5C 333.724,185.098 333.057,190.431 331.5,195.5C 332.232,186.185 332.566,176.852 332.5,167.5 Z"/></g>
<g><path style="opacity:1" fill="#fefdfd" d="M 175.5,-0.5 C 236.833,-0.5 298.167,-0.5 359.5,-0.5C 359.5,119.167 359.5,238.833 359.5,358.5C 295.167,358.5 230.833,358.5 166.5,358.5C 166.557,357.391 166.89,356.391 167.5,355.5C 167.833,355.5 168.167,355.5 168.5,355.5C 169.5,355.5 170.5,355.5 171.5,355.5C 178.55,356.753 185.55,356.42 192.5,354.5C 205.232,350.8 217.232,345.467 228.5,338.5C 232.951,335.889 237.284,333.056 241.5,330C 246.031,329.093 250.364,327.927 254.5,326.5C 257.522,326.196 260.522,325.696 263.5,325C 270.402,322.789 277.068,320.289 283.5,317.5C 290.944,315.616 297.277,311.949 302.5,306.5C 303.167,306.5 303.5,306.167 303.5,305.5C 313.047,297.758 319.047,287.758 321.5,275.5C 325.395,265.255 328.061,254.588 329.5,243.5C 336.872,232.757 343.205,221.423 348.5,209.5C 352.947,202.159 355.614,194.159 356.5,185.5C 358.482,172.415 356.149,160.082 349.5,148.5C 347.336,143.5 344.669,138.833 341.5,134.5C 338.276,128.391 334.776,122.391 331,116.5C 330.038,111.988 328.871,107.655 327.5,103.5C 326.41,95.7949 324.41,88.4616 321.5,81.5C 319.818,74.4715 316.818,68.1382 312.5,62.5C 309.239,56.2373 304.572,51.2373 298.5,47.5C 286.497,40.0022 273.497,35.0022 259.5,32.5C 255.526,30.4249 251.192,29.4249 246.5,29.5C 235.551,23.5856 224.551,17.5856 213.5,11.5C 206.898,6.87037 199.564,3.87037 191.5,2.5C 184.345,1.34485 177.012,1.17818 169.5,2C 168.263,2.23209 167.263,2.73209 166.5,3.5C 166.167,3.5 165.833,3.5 165.5,3.5C 163.708,3.36596 162.042,3.69929 160.5,4.5C 161.348,2.90693 162.681,1.74026 164.5,1C 168.356,0.822695 172.023,0.322695 175.5,-0.5 Z"/></g>
<g><path style="opacity:1" fill="#c64649" d="M 191.5,2.5 C 183.133,2.29535 174.8,2.62868 166.5,3.5C 167.263,2.73209 168.263,2.23209 169.5,2C 177.012,1.17818 184.345,1.34485 191.5,2.5 Z"/></g>
<g><path style="opacity:1" fill="#7a7878" d="M 119.5,177.5 C 119.5,178.5 119.5,179.5 119.5,180.5C 114.833,180.5 110.167,180.5 105.5,180.5C 105.5,179.5 105.5,178.5 105.5,177.5C 110.167,177.5 114.833,177.5 119.5,177.5 Z"/></g>
<g><path style="opacity:1" fill="#797777" d="M 239.5,177.5 C 243.833,177.5 248.167,177.5 252.5,177.5C 252.5,178.5 252.5,179.5 252.5,180.5C 248.167,180.5 243.833,180.5 239.5,180.5C 239.5,179.5 239.5,178.5 239.5,177.5 Z"/></g>
<g><path style="opacity:1" fill="#6f7071" d="M 319.5,178.5 C 322.136,178.491 323.469,179.825 323.5,182.5C 321.275,187.787 318.942,187.787 316.5,182.5C 317.172,180.84 318.172,179.507 319.5,178.5 Z"/></g>
<g><path style="opacity:1" fill="#6b6b6b" d="M 36.5,178.5 C 41.3276,178.385 42.6609,180.552 40.5,185C 34.6815,185.526 33.3481,183.359 36.5,178.5 Z"/></g>
<g><path style="opacity:1" fill="#e3e3e3" d="M 95.5,175.5 C 95.7135,177.144 95.3802,178.644 94.5,180C 96.1866,184.627 97.1866,189.46 97.5,194.5C 95.9902,196.822 95.6569,199.155 96.5,201.5C 95.8333,201.5 95.1667,201.5 94.5,201.5C 93.039,196.213 92.3723,196.547 92.5,202.5C 91.6568,200.513 90.9902,198.346 90.5,196C 92.5314,193.518 92.8647,190.852 91.5,188C 93.6913,183.599 93.0246,183.433 89.5,187.5C 88.2966,182.004 90.2966,178.004 95.5,175.5 Z"/></g>
<g><path style="opacity:1" fill="#bd2f36" d="M 185.5,173.5 C 203.167,173.5 220.833,173.5 238.5,173.5C 238.232,175.099 238.566,176.432 239.5,177.5C 239.5,178.5 239.5,179.5 239.5,180.5C 238.596,181.209 238.263,182.209 238.5,183.5C 236.5,183.5 234.5,183.5 232.5,183.5C 231.5,183.5 230.5,183.5 229.5,183.5C 221.833,183.5 214.167,183.5 206.5,183.5C 205.833,183.5 205.167,183.5 204.5,183.5C 198.167,183.5 191.833,183.5 185.5,183.5C 202.325,182.503 219.325,182.17 236.5,182.5C 236.5,179.833 236.5,177.167 236.5,174.5C 219.325,174.83 202.325,174.497 185.5,173.5 Z"/></g>
<g><path style="opacity:1" fill="#fdfcfc" d="M 155.5,184.5 C 161.5,184.5 167.5,184.5 173.5,184.5C 173.5,190.833 173.5,197.167 173.5,203.5C 167.5,203.5 161.5,203.5 155.5,203.5C 155.5,197.167 155.5,190.833 155.5,184.5 Z"/></g>
<g><path style="opacity:1" fill="#fbfaf9" d="M 204.5,184.5 C 204.5,190.833 204.5,197.167 204.5,203.5C 198.167,203.5 191.833,203.5 185.5,203.5C 185.5,197.167 185.5,190.833 185.5,184.5C 191.833,184.5 198.167,184.5 204.5,184.5 Z"/></g>
<g><path style="opacity:1" fill="#cb3338" d="M 2.5,168.5 C 1.7646,175.935 2.7646,182.935 5.5,189.5C 4.77664,191.782 4.44331,194.116 4.5,196.5C 3.22367,194.438 2.39034,192.104 2,189.5C 1.17874,182.321 1.3454,175.321 2.5,168.5 Z"/></g>
<g><path style="opacity:1" fill="#fba3a9" d="M 185.5,183.5 C 191.833,183.5 198.167,183.5 204.5,183.5C 204.5,183.833 204.5,184.167 204.5,184.5C 198.167,184.5 191.833,184.5 185.5,184.5C 185.5,190.833 185.5,197.167 185.5,203.5C 184.51,197.355 184.177,191.022 184.5,184.5C 184.5,183.833 184.833,183.5 185.5,183.5 Z"/></g>
<g><path style="opacity:1" fill="#fefdfd" d="M -0.5,-0.5 C 58.1667,-0.5 116.833,-0.5 175.5,-0.5C 172.023,0.322695 168.356,0.822695 164.5,1C 162.681,1.74026 161.348,2.90693 160.5,4.5C 154.402,6.38396 148.735,9.05063 143.5,12.5C 134.836,16.1607 126.836,20.8274 119.5,26.5C 112.271,28.0538 105.271,30.0538 98.5,32.5C 93.8354,33.0569 89.5021,34.3902 85.5,36.5C 82.145,36.6896 79.145,37.6896 76.5,39.5C 71.9024,40.4654 67.9024,42.4654 64.5,45.5C 54.4435,50.5567 47.1101,58.2233 42.5,68.5C 39.8341,73.1769 37.6675,78.1769 36,83.5C 32.8252,95.5345 29.6585,107.534 26.5,119.5C 22.6692,124.489 19.3359,129.822 16.5,135.5C 12.9922,141.182 9.99217,147.182 7.5,153.5C 4.46427,157.948 2.7976,162.948 2.5,168.5C 1.3454,175.321 1.17874,182.321 2,189.5C 2.39034,192.104 3.22367,194.438 4.5,196.5C 5.97129,203.938 8.97129,210.604 13.5,216.5C 13.5,216.833 13.5,217.167 13.5,217.5C 16.015,222.543 19.015,227.21 22.5,231.5C 24.0549,234.94 25.8882,238.273 28,241.5C 28.977,243.74 29.477,246.073 29.5,248.5C 31.8823,259.125 34.8823,269.458 38.5,279.5C 42.7292,294.055 51.3959,305.055 64.5,312.5C 70.593,316.542 77.2597,319.542 84.5,321.5C 84.8333,321.5 85.1667,321.5 85.5,321.5C 97.034,324.97 108.701,328.303 120.5,331.5C 127.659,336.917 135.325,341.583 143.5,345.5C 150.734,350.444 158.734,353.777 167.5,355.5C 166.89,356.391 166.557,357.391 166.5,358.5C 110.833,358.5 55.1667,358.5 -0.5,358.5C -0.5,238.833 -0.5,119.167 -0.5,-0.5 Z"/></g>
<g><path style="opacity:1" fill="#6b6c6c" d="M 317.5,192.5 C 321.976,192.8 323.31,194.967 321.5,199C 315.313,199.965 313.98,197.799 317.5,192.5 Z"/></g>
<g><path style="opacity:1" fill="#d02d32" d="M 328.5,143.5 C 329.956,145.709 331.456,148.043 333,150.5C 334.257,168.376 334.924,186.042 335,203.5C 333.956,201.285 333.29,198.952 333,196.5C 332.825,200.211 332.325,203.878 331.5,207.5C 331.08,210.616 330.08,213.283 328.5,215.5C 329.319,208.767 330.319,202.101 331.5,195.5C 333.057,190.431 333.724,185.098 333.5,179.5C 333.499,175.319 333.166,171.319 332.5,167.5C 331.825,159.51 330.491,151.51 328.5,143.5 Z"/></g>
<g><path style="opacity:1" fill="#6b6b6d" d="M 37.5,192.5 C 42.3276,192.385 43.6609,194.552 41.5,199C 35.7377,199.418 34.4044,197.251 37.5,192.5 Z"/></g>
<g><path style="opacity:1" fill="#fda7ad" d="M 155.5,184.5 C 155.5,184.167 155.5,183.833 155.5,183.5C 161.5,183.5 167.5,183.5 173.5,183.5C 173.833,183.5 174.167,183.5 174.5,183.5C 174.824,190.354 174.491,197.021 173.5,203.5C 173.5,197.167 173.5,190.833 173.5,184.5C 167.5,184.5 161.5,184.5 155.5,184.5 Z"/></g>
<g><path style="opacity:1" fill="#67676a" d="M 66.5,192.5 C 71.4206,192.043 74.9206,194.043 77,198.5C 78.0734,202.084 78.7401,205.75 79,209.5C 81.4547,211.374 81.9547,213.707 80.5,216.5C 79.1667,215.5 77.8333,214.5 76.5,213.5C 71.406,215.776 66.0726,217.443 60.5,218.5C 59.2319,216.696 58.5652,214.696 58.5,212.5C 63.9176,212.261 68.7509,210.595 73,207.5C 74.2714,200.44 71.4381,197.94 64.5,200C 67.2224,201.272 68.5557,203.439 68.5,206.5C 67.0695,206.421 65.7362,206.754 64.5,207.5C 63.5937,205.614 62.5937,203.78 61.5,202C 59.5273,201.505 57.5273,201.338 55.5,201.5C 55.1667,199.5 54.8333,197.5 54.5,195.5C 58.7607,195.102 62.7607,194.102 66.5,192.5 Z"/></g>
<g><path style="opacity:1" fill="#9a9a9a" d="M 94.5,201.5 C 93.968,204.46 93.3013,204.793 92.5,202.5C 92.3723,196.547 93.039,196.213 94.5,201.5 Z"/></g>
<g><path style="opacity:1" fill="#c4363d" d="M 356.5,185.5 C 355.614,194.159 352.947,202.159 348.5,209.5C 351.431,202.117 353.598,194.451 355,186.5C 355.383,185.944 355.883,185.611 356.5,185.5 Z"/></g>
<g><path style="opacity:1" fill="#6f6e6f" d="M 126.5,183.5 C 127.5,183.5 128.5,183.5 129.5,183.5C 129.5,190.167 129.5,196.833 129.5,203.5C 137.167,203.5 144.833,203.5 152.5,203.5C 152.5,196.833 152.5,190.167 152.5,183.5C 153.5,183.5 154.5,183.5 155.5,183.5C 155.5,183.833 155.5,184.167 155.5,184.5C 155.5,190.833 155.5,197.167 155.5,203.5C 161.5,203.5 167.5,203.5 173.5,203.5C 173.5,204.167 173.5,204.833 173.5,205.5C 167.167,205.5 160.833,205.5 154.5,205.5C 154.5,213.5 154.5,221.5 154.5,229.5C 160.833,229.5 167.167,229.5 173.5,229.5C 173.5,230.167 173.5,230.833 173.5,231.5C 167.5,231.5 161.5,231.5 155.5,231.5C 155.5,235.833 155.5,240.167 155.5,244.5C 154.5,244.5 153.5,244.5 152.5,244.5C 152.5,240.167 152.5,235.833 152.5,231.5C 144.833,231.5 137.167,231.5 129.5,231.5C 129.5,232.833 129.5,234.167 129.5,235.5C 128.5,235.5 127.5,235.5 126.5,235.5C 126.5,234.167 126.5,232.833 126.5,231.5C 125.167,231.5 123.833,231.5 122.5,231.5C 122.5,230.5 122.5,229.5 122.5,228.5C 123.833,228.5 125.167,228.5 126.5,228.5C 126.5,220.833 126.5,213.167 126.5,205.5C 109.167,204.833 109.167,204.167 126.5,203.5C 126.5,197.167 126.5,190.833 126.5,184.5C 126.5,184.167 126.5,183.833 126.5,183.5 Z"/></g>
<g><path style="opacity:1" fill="#fef9fa" d="M 129.5,183.5 C 137.167,183.5 144.833,183.5 152.5,183.5C 152.5,190.167 152.5,196.833 152.5,203.5C 144.833,203.5 137.167,203.5 129.5,203.5C 129.5,196.833 129.5,190.167 129.5,183.5 Z"/></g>
<g><path style="opacity:1" fill="#fafafa" d="M 129.5,205.5 C 137.167,205.5 144.833,205.5 152.5,205.5C 152.5,213.5 152.5,221.5 152.5,229.5C 144.833,229.5 137.167,229.5 129.5,229.5C 129.5,221.5 129.5,213.5 129.5,205.5 Z"/></g>
<g><path style="opacity:1" fill="#666668" d="M 204.5,183.5 C 205.167,183.5 205.833,183.5 206.5,183.5C 206.5,190.167 206.5,196.833 206.5,203.5C 214.167,203.5 221.833,203.5 229.5,203.5C 229.5,196.833 229.5,190.167 229.5,183.5C 230.5,183.5 231.5,183.5 232.5,183.5C 232.5,190.167 232.5,196.833 232.5,203.5C 251.167,204.167 251.167,204.833 232.5,205.5C 232.5,213.5 232.5,221.5 232.5,229.5C 239.167,230.167 239.167,230.833 232.5,231.5C 232.5,232.833 232.5,234.167 232.5,235.5C 231.5,235.5 230.5,235.5 229.5,235.5C 229.5,234.167 229.5,232.833 229.5,231.5C 221.833,231.5 214.167,231.5 206.5,231.5C 205.833,248.833 205.167,248.833 204.5,231.5C 198.5,231.5 192.5,231.5 186.5,231.5C 186.167,231.5 185.833,231.5 185.5,231.5C 185.5,230.833 185.5,230.167 185.5,229.5C 191.833,229.5 198.167,229.5 204.5,229.5C 204.5,221.5 204.5,213.5 204.5,205.5C 198.167,205.5 191.833,205.5 185.5,205.5C 185.5,204.833 185.5,204.167 185.5,203.5C 191.833,203.5 198.167,203.5 204.5,203.5C 204.5,197.167 204.5,190.833 204.5,184.5C 204.5,184.167 204.5,183.833 204.5,183.5 Z"/></g>
<g><path style="opacity:1" fill="#fdf9f9" d="M 206.5,183.5 C 214.167,183.5 221.833,183.5 229.5,183.5C 229.5,190.167 229.5,196.833 229.5,203.5C 221.833,203.5 214.167,203.5 206.5,203.5C 206.5,196.833 206.5,190.167 206.5,183.5 Z"/></g>
<g><path style="opacity:1" fill="#fefefe" d="M 206.5,206.5 C 214.167,206.5 221.833,206.5 229.5,206.5C 229.5,213.833 229.5,221.167 229.5,228.5C 221.833,228.5 214.167,228.5 206.5,228.5C 206.5,221.167 206.5,213.833 206.5,206.5 Z"/></g>
<g><path style="opacity:1" fill="#6b6a6f" d="M 39.5,206.5 C 45.0159,206.473 46.3492,208.64 43.5,213C 38.5705,213.427 37.2372,211.26 39.5,206.5 Z"/></g>
<g><path style="opacity:1" fill="#c8b2b4" d="M 173.5,205.5 C 174.833,213.5 174.833,221.5 173.5,229.5C 167.167,229.5 160.833,229.5 154.5,229.5C 154.5,221.5 154.5,213.5 154.5,205.5C 160.833,205.5 167.167,205.5 173.5,205.5 Z"/></g>
<g><path style="opacity:1" fill="#fefefd" d="M 155.5,206.5 C 161.5,206.5 167.5,206.5 173.5,206.5C 173.5,213.833 173.5,221.167 173.5,228.5C 167.5,228.5 161.5,228.5 155.5,228.5C 155.5,221.167 155.5,213.833 155.5,206.5 Z"/></g>
<g><path style="opacity:1" fill="#ba2f37" d="M 174.5,183.5 C 175.332,200.328 175.832,217.328 176,234.5C 178.381,235.435 180.881,235.768 183.5,235.5C 183.17,218.325 183.503,201.325 184.5,184.5C 184.177,191.022 184.51,197.355 185.5,203.5C 185.5,204.167 185.5,204.833 185.5,205.5C 184.167,213.5 184.167,221.5 185.5,229.5C 185.5,230.167 185.5,230.833 185.5,231.5C 184.549,232.919 184.216,234.585 184.5,236.5C 182.901,236.232 181.568,236.566 180.5,237.5C 179.833,237.5 179.167,237.5 178.5,237.5C 177.432,236.566 176.099,236.232 174.5,236.5C 174.784,234.585 174.451,232.919 173.5,231.5C 173.5,230.833 173.5,230.167 173.5,229.5C 174.833,221.5 174.833,213.5 173.5,205.5C 173.5,204.833 173.5,204.167 173.5,203.5C 174.491,197.021 174.824,190.354 174.5,183.5 Z"/></g>
<g><path style="opacity:1" fill="#d0b9ba" d="M 185.5,205.5 C 191.833,205.5 198.167,205.5 204.5,205.5C 204.5,213.5 204.5,221.5 204.5,229.5C 198.167,229.5 191.833,229.5 185.5,229.5C 184.167,221.5 184.167,213.5 185.5,205.5 Z"/></g>
<g><path style="opacity:1" fill="#fefefd" d="M 185.5,206.5 C 191.5,206.5 197.5,206.5 203.5,206.5C 203.5,213.833 203.5,221.167 203.5,228.5C 197.5,228.5 191.5,228.5 185.5,228.5C 185.5,221.167 185.5,213.833 185.5,206.5 Z"/></g>
<g><path style="opacity:1" fill="#b0b0b3" d="M 206.5,206.5 C 214.316,205.508 222.316,205.174 230.5,205.5C 230.5,213.5 230.5,221.5 230.5,229.5C 222.316,229.826 214.316,229.492 206.5,228.5C 214.167,228.5 221.833,228.5 229.5,228.5C 229.5,221.167 229.5,213.833 229.5,206.5C 221.833,206.5 214.167,206.5 206.5,206.5 Z"/></g>
<g><path style="opacity:1" fill="#68686c" d="M 284.5,189.5 C 291.182,190.043 297.348,192.043 303,195.5C 305.281,200.987 303.781,205.154 298.5,208C 299.5,208.833 300.5,209.667 301.5,210.5C 300.316,212.046 299.316,213.713 298.5,215.5C 293.909,212.768 288.909,211.435 283.5,211.5C 283.84,214.144 283.173,216.477 281.5,218.5C 283.514,223.168 286.847,224.501 291.5,222.5C 292.95,221.15 293.617,219.484 293.5,217.5C 295.714,217.291 297.381,218.124 298.5,220C 295.609,229.805 289.609,232.138 280.5,227C 275.742,222.847 275.409,218.514 279.5,214C 277.957,210.498 278.957,207.831 282.5,206C 286.853,205.755 291.187,205.755 295.5,206C 298.362,204.214 299.028,201.881 297.5,199C 293.14,197.602 288.807,196.102 284.5,194.5C 283.566,192.905 283.566,191.239 284.5,189.5 Z"/></g>
<g><path style="opacity:1" fill="#c43c40" d="M 4.5,196.5 C 7.46812,203.026 10.4681,209.693 13.5,216.5C 8.97129,210.604 5.97129,203.938 4.5,196.5 Z"/></g>
<g><path style="opacity:1" fill="#69686c" d="M 315.5,206.5 C 319.976,206.8 321.31,208.967 319.5,213C 313.339,213.878 312.006,211.711 315.5,206.5 Z"/></g>
<g><path style="opacity:1" fill="#c84249" d="M 27.5,201.5 C 29.5849,210.446 31.9182,219.446 34.5,228.5C 33.8333,228.167 33.1667,227.833 32.5,227.5C 30.0345,219.07 28.3678,210.403 27.5,201.5 Z"/></g>
<g><path style="opacity:1" fill="#6a6d6e" d="M 43.5,220.5 C 49.0159,220.473 50.3492,222.64 47.5,227C 42.5705,227.427 41.2372,225.26 43.5,220.5 Z"/></g>
<g><path style="opacity:1" fill="#69696b" d="M 310.5,220.5 C 316.555,219.942 317.888,222.109 314.5,227C 309.791,227.082 308.458,224.915 310.5,220.5 Z"/></g>
<g><path style="opacity:1" fill="#6a6a6c" d="M 86.5,215.5 C 89.1606,218.171 91.4939,221.171 93.5,224.5C 99.8971,226.504 100.064,228.838 94,231.5C 90.6406,227.802 87.6406,223.802 85,219.5C 84.516,217.807 85.016,216.473 86.5,215.5 Z"/></g>
<g><path style="opacity:1" fill="#c94146" d="M 13.5,217.5 C 15.0245,218.174 16.3578,219.174 17.5,220.5C 19.4557,224.075 21.1224,227.742 22.5,231.5C 19.015,227.21 16.015,222.543 13.5,217.5 Z"/></g>
<g><path style="opacity:1" fill="#6a696c" d="M 77.5,221.5 C 83.7719,221.262 87.6052,224.262 89,230.5C 89.4955,232.473 89.6621,234.473 89.5,236.5C 88.1667,236.5 86.8333,236.5 85.5,236.5C 85.5132,232.863 84.1798,229.863 81.5,227.5C 81.1519,232.111 80.9853,236.778 81,241.5C 75.6308,245.89 71.2975,244.89 68,238.5C 66.3262,234.979 65.1596,231.313 64.5,227.5C 66.1667,227.5 67.8333,227.5 69.5,227.5C 69.4432,232.014 71.1098,235.68 74.5,238.5C 75.0109,233.874 75.1775,229.207 75,224.5C 76.045,223.627 76.8783,222.627 77.5,221.5 Z"/></g>
<g><path style="opacity:1" fill="#c94046" d="M 328.5,215.5 C 327.671,220.154 326.837,224.82 326,229.5C 324.656,232.865 322.823,235.865 320.5,238.5C 322.792,230.62 325.459,222.953 328.5,215.5 Z"/></g>
<g><path style="opacity:1" fill="#fececf" d="M 185.5,231.5 C 185.833,231.5 186.167,231.5 186.5,231.5C 186.5,233.5 186.5,235.5 186.5,237.5C 184.5,237.5 182.5,237.5 180.5,237.5C 181.568,236.566 182.901,236.232 184.5,236.5C 184.216,234.585 184.549,232.919 185.5,231.5 Z"/></g>
<g><path style="opacity:1" fill="#6d6d71" d="M 48.5,233.5 C 54.5548,232.942 55.8881,235.109 52.5,240C 47.7915,240.082 46.4582,237.915 48.5,233.5 Z"/></g>
<g><path style="opacity:1" fill="#69696c" d="M 271.5,229.5 C 273.564,229.762 274.897,230.929 275.5,233C 272.667,234.5 270.5,236.667 269,239.5C 268.437,240.725 268.77,241.725 270,242.5C 273.167,240 276.333,237.5 279.5,235C 285.878,234.379 288.378,237.212 287,243.5C 285.114,247.44 282.614,250.94 279.5,254C 276.333,254.833 275.167,253.667 276,250.5C 279.647,248.529 281.814,245.529 282.5,241.5C 278.641,241.846 275.641,243.68 273.5,247C 269.543,249.385 266.376,248.552 264,244.5C 263.333,242.833 263.333,241.167 264,239.5C 265.947,235.724 268.447,232.39 271.5,229.5 Z"/></g>
<g><path style="opacity:1" fill="#68676b" d="M 305.5,233.5 C 311.555,232.942 312.888,235.109 309.5,240C 304.791,240.082 303.458,237.915 305.5,233.5 Z"/></g>
<g><path style="opacity:1" fill="#676464" d="M 178.5,237.5 C 179.167,237.5 179.833,237.5 180.5,237.5C 179.833,254.833 179.167,254.833 178.5,237.5 Z"/></g>
<g><path style="opacity:1" fill="#858585" d="M 121.5,243.5 C 121.833,243.5 122.167,243.5 122.5,243.5C 122.783,249.925 121.783,250.091 119.5,244C 120.094,243.536 120.761,243.369 121.5,243.5 Z"/></g>
<g><path style="opacity:1" fill="#686868" d="M 55.5,245.5 C 59.9764,245.8 61.3097,247.967 59.5,252C 53.7377,252.418 52.4044,250.251 55.5,245.5 Z"/></g>
<g><path style="opacity:1" fill="#d13035" d="M 32.5,227.5 C 33.1667,227.833 33.8333,228.167 34.5,228.5C 39.3459,240.526 45.0126,252.193 51.5,263.5C 49.9028,262.91 48.5695,261.91 47.5,260.5C 46.7492,261.376 46.2492,262.376 46,263.5C 45.7406,258.785 44.4073,254.452 42,250.5C 41.3333,251.167 40.6667,251.833 40,252.5C 38.5778,252.406 37.0778,252.072 35.5,251.5C 36.4963,249.184 38.1629,247.517 40.5,246.5C 37.8809,241.681 35.7143,236.681 34,231.5C 33.8888,236.379 32.7222,236.712 30.5,232.5C 27.7319,237.167 28.3986,241.334 32.5,245C 31.8333,245.333 31.1667,245.667 30.5,246C 31.3366,247.011 31.67,248.178 31.5,249.5C 30.8333,249.167 30.1667,248.833 29.5,248.5C 29.477,246.073 28.977,243.74 28,241.5C 25.8882,238.273 24.0549,234.94 22.5,231.5C 23.7498,231.577 24.5831,232.244 25,233.5C 28.0033,231.296 30.5033,229.296 32.5,227.5 Z"/></g>
<g><path style="opacity:1" fill="#696a6c" d="M 299.5,245.5 C 305.078,245.525 306.411,247.691 303.5,252C 298.57,252.427 297.237,250.26 299.5,245.5 Z"/></g>
<g><path style="opacity:1" fill="#909090" d="M 135.5,253.5 C 135.833,253.5 136.167,253.5 136.5,253.5C 136.372,256.774 135.039,256.941 132.5,254C 133.448,253.517 134.448,253.351 135.5,253.5 Z"/></g>
<g><path style="opacity:1" fill="#6a696a" d="M 62.5,257.5 C 68.0159,257.473 69.3492,259.64 66.5,264C 61.5705,264.427 60.2372,262.26 62.5,257.5 Z"/></g>
<g><path style="opacity:1" fill="#68676b" d="M 291.5,257.5 C 297.016,257.473 298.349,259.64 295.5,264C 290.57,264.427 289.237,262.26 291.5,257.5 Z"/></g>
<g><path style="opacity:1" fill="#c64447" d="M 29.5,248.5 C 30.1667,248.833 30.8333,249.167 31.5,249.5C 34.0885,259.443 36.4219,269.443 38.5,279.5C 34.8823,269.458 31.8823,259.125 29.5,248.5 Z"/></g>
<g><path style="opacity:1" fill="#67676a" d="M 243.5,260.5 C 251.994,259.177 256.994,262.677 258.5,271C 257.345,279.08 252.678,283.247 244.5,283.5C 244.5,281.833 244.5,280.167 244.5,278.5C 253.309,276.597 254.642,272.43 248.5,266C 244.563,265.805 241.563,267.472 239.5,271C 237.866,271.494 236.199,271.66 234.5,271.5C 235.669,266.331 238.669,262.665 243.5,260.5 Z"/></g>
<g><path style="opacity:1" fill="#68686b" d="M 254.5,239.5 C 256.252,239.418 257.252,240.251 257.5,242C 256.561,243.944 255.227,245.611 253.5,247C 258.42,249.916 262.753,253.582 266.5,258C 268.235,258.651 269.902,258.485 271.5,257.5C 273.475,258.275 274.309,259.609 274,261.5C 271.624,265.552 268.457,266.385 264.5,264C 260.8,259.965 256.8,256.298 252.5,253C 250.765,252.349 249.098,252.515 247.5,253.5C 245.525,252.725 244.691,251.391 245,249.5C 248.371,246.297 251.538,242.964 254.5,239.5 Z"/></g>
<g><path style="opacity:1" fill="#67676b" d="M 93.5,239.5 C 95.352,240.52 96.6853,242.02 97.5,244C 94.3997,247.1 91.2331,250.267 88,253.5C 87.4621,259.519 90.2955,261.686 96.5,260C 99.0366,257.128 101.87,254.628 105,252.5C 106.353,253.685 107.52,255.019 108.5,256.5C 103.527,260.806 98.8604,265.473 94.5,270.5C 92.8333,269.333 91.1667,268.167 89.5,267C 90.3567,266.311 91.0233,265.478 91.5,264.5C 81.8355,262.371 79.3355,257.038 84,248.5C 87.6671,245.999 90.8338,242.999 93.5,239.5 Z"/></g>
<g><path style="opacity:1" fill="#696a6c" d="M 241.5,252.5 C 243.196,252.685 244.529,253.519 245.5,255C 241.2,258.298 237.2,261.965 233.5,266C 231.799,266.345 230.466,265.678 229.5,264C 233.395,259.935 237.395,256.102 241.5,252.5 Z"/></g>
<g><path style="opacity:1" fill="#dadada" d="M 158.5,260.5 C 158.389,261.117 158.056,261.617 157.5,262C 159.556,262.311 161.556,262.811 163.5,263.5C 164.086,263.291 164.586,262.957 165,262.5C 165.284,264.886 166.284,265.552 168,264.5C 169.214,266.049 170.714,267.215 172.5,268C 168.619,269.059 165.619,267.892 163.5,264.5C 163.598,265.616 163.098,266.616 162,267.5C 160.5,267 159,266.5 157.5,266C 156.743,264.488 155.743,263.154 154.5,262C 155.167,261.667 155.833,261.333 156.5,261C 154.797,260.255 153.13,259.421 151.5,258.5C 150.833,258.667 150.167,258.833 149.5,259C 151.361,260.028 152.695,261.528 153.5,263.5C 152.224,264.645 150.891,264.645 149.5,263.5C 148.5,262.167 147.5,260.833 146.5,259.5C 146.251,260.582 146.085,261.915 146,263.5C 145.097,262.299 143.931,261.465 142.5,261C 143.167,260.667 143.833,260.333 144.5,260C 143.748,259.329 143.414,258.496 143.5,257.5C 145.044,257.297 146.378,256.63 147.5,255.5C 151.344,256.8 155.011,258.467 158.5,260.5 Z"/></g>
<g><path style="opacity:1" fill="#ca3f42" d="M 329.5,243.5 C 328.061,254.588 325.395,265.255 321.5,275.5C 323.934,265.959 325.767,256.292 327,246.5C 327.377,245.058 328.21,244.058 329.5,243.5 Z"/></g>
<g><path style="opacity:1" fill="#959595" d="M 175.5,265.5 C 177.423,265.795 179.09,266.628 180.5,268C 178.447,268.325 176.447,267.991 174.5,267C 175.056,266.617 175.389,266.117 175.5,265.5 Z"/></g>
<g><path style="opacity:1" fill="#cc363c" d="M 308.5,261.5 C 308.799,263.604 308.466,265.604 307.5,267.5C 304.019,269.446 301.185,272.113 299,275.5C 298.51,276.793 298.343,278.127 298.5,279.5C 297.167,279.5 295.833,279.5 294.5,279.5C 299.178,273.461 303.845,267.461 308.5,261.5 Z"/></g>
<g><path style="opacity:1" fill="#6e6f73" d="M 71.5,268.5 C 77.0159,268.473 78.3492,270.64 75.5,275C 69.7377,275.418 68.4044,273.251 71.5,268.5 Z"/></g>
<g><path style="opacity:1" fill="#68696c" d="M 112.5,262.5 C 119.783,262.892 125.283,266.225 129,272.5C 129.552,275.419 128.885,278.086 127,280.5C 125.355,284.132 123.021,287.132 120,289.5C 118.51,288.683 117.01,287.85 115.5,287C 117.543,283.747 119.71,280.58 122,277.5C 123.677,272.345 121.844,269.345 116.5,268.5C 114.603,268.728 113.27,269.728 112.5,271.5C 115.119,271.976 117.119,273.309 118.5,275.5C 118.023,276.478 117.357,277.311 116.5,278C 113.867,277.747 111.2,277.747 108.5,278C 106.088,281.162 103.755,280.995 101.5,277.5C 104.467,271.861 108.134,266.861 112.5,262.5 Z"/></g>
<g><path style="opacity:1" fill="#69696b" d="M 136.5,268.5 C 142.192,269.372 147.859,270.372 153.5,271.5C 153.5,272.833 153.5,274.167 153.5,275.5C 147.742,274.977 142.075,273.977 136.5,272.5C 136.5,271.167 136.5,269.833 136.5,268.5 Z"/></g>
<g><path style="opacity:1" fill="#69696d" d="M 283.5,268.5 C 288.328,268.385 289.661,270.552 287.5,275C 281.738,275.418 280.404,273.251 283.5,268.5 Z"/></g>
<g><path style="opacity:1" fill="#6a6a6c" d="M 273.5,278.5 C 278.328,278.385 279.661,280.552 277.5,285C 271.738,285.418 270.404,283.251 273.5,278.5 Z"/></g>
<g><path style="opacity:1" fill="#6a6a6c" d="M 81.5,278.5 C 86.3276,278.385 87.6609,280.552 85.5,285C 79.7377,285.418 78.4044,283.251 81.5,278.5 Z"/></g>
<g><path style="opacity:1" fill="#69696c" d="M 197.5,280.5 C 202.126,279.7 205.96,281.034 209,284.5C 210.74,289.7 211.907,295.034 212.5,300.5C 210.5,300.833 208.5,301.167 206.5,301.5C 205.884,297.137 205.05,292.803 204,288.5C 199.765,284.26 196.265,284.927 193.5,290.5C 194.538,294.769 195.205,299.102 195.5,303.5C 193.5,303.5 191.5,303.5 189.5,303.5C 188.408,296.521 187.408,289.521 186.5,282.5C 188.5,282.5 190.5,282.5 192.5,282.5C 192.351,283.552 192.517,284.552 193,285.5C 194.193,283.503 195.693,281.836 197.5,280.5 Z"/></g>
<g><path style="opacity:1" fill="#666769" d="M 225.5,271.5 C 227.167,271.5 228.833,271.5 230.5,271.5C 230.5,273.167 230.5,274.833 230.5,276.5C 227.276,276.203 224.276,276.87 221.5,278.5C 220.614,279.325 220.281,280.325 220.5,281.5C 225.149,280.705 229.816,280.539 234.5,281C 238.758,285.721 238.091,289.721 232.5,293C 228.687,294.772 224.687,295.605 220.5,295.5C 220.5,294.167 220.5,292.833 220.5,291.5C 224.059,291.592 227.392,290.759 230.5,289C 231.337,287.989 231.67,286.822 231.5,285.5C 226.84,286.167 222.174,286.333 217.5,286C 215.078,283.997 214.245,281.497 215,278.5C 217.998,275.262 221.498,272.929 225.5,271.5 Z"/></g>
<g><path style="opacity:1" fill="#cb343a" d="M 321.5,275.5 C 319.047,287.758 313.047,297.758 303.5,305.5C 304.96,303.15 306.626,300.816 308.5,298.5C 307.391,296.786 308.058,296.119 310.5,296.5C 310.343,295.127 310.51,293.793 311,292.5C 311.667,291.167 312.333,291.167 313,292.5C 313.915,291.672 314.581,290.672 315,289.5C 315.346,286.424 316.012,283.424 317,280.5C 317.667,281.833 318.333,281.833 319,280.5C 319.374,278.509 320.207,276.842 321.5,275.5 Z"/></g>
<g><path style="opacity:1" fill="#67676a" d="M 158.5,281.5 C 160.5,281.5 162.5,281.5 164.5,281.5C 163.578,286.472 163.412,291.472 164,296.5C 167.13,299.122 170.297,299.122 173.5,296.5C 174.459,292.204 175.125,287.871 175.5,283.5C 177.167,283.5 178.833,283.5 180.5,283.5C 179.719,290.074 179.719,296.574 180.5,303C 178.406,304.352 176.073,304.852 173.5,304.5C 173.719,303.325 173.386,302.325 172.5,301.5C 162.253,306.269 157.253,302.936 157.5,291.5C 157.724,288.145 158.057,284.812 158.5,281.5 Z"/></g>
<g><path style="opacity:1" fill="#d8222a" d="M 51.5,263.5 C 65.7049,284.039 83.7049,300.373 105.5,312.5C 106.663,314.982 108.663,316.316 111.5,316.5C 111.739,318.467 111.406,320.301 110.5,322C 111.549,322.492 112.549,322.326 113.5,321.5C 114.613,323.031 116.113,324.031 118,324.5C 121.178,324.355 124.344,324.188 127.5,324C 129.316,325.315 130.983,326.815 132.5,328.5C 130.833,329.167 129.167,329.833 127.5,330.5C 128.263,331.719 129.263,332.719 130.5,333.5C 128.034,334.881 126.034,334.381 124.5,332C 123.207,331.51 121.873,331.343 120.5,331.5C 120.047,330.542 119.381,329.708 118.5,329C 112.902,327.799 107.569,325.799 102.5,323C 96.8112,322.627 91.1445,322.127 85.5,321.5C 85.1667,321.5 84.8333,321.5 84.5,321.5C 81.9029,320.111 79.5695,318.278 77.5,316C 72.9183,315.525 68.585,314.358 64.5,312.5C 51.3959,305.055 42.7292,294.055 38.5,279.5C 36.4219,269.443 34.0885,259.443 31.5,249.5C 31.67,248.178 31.3366,247.011 30.5,246C 31.1667,245.667 31.8333,245.333 32.5,245C 28.3986,241.334 27.7319,237.167 30.5,232.5C 32.7222,236.712 33.8888,236.379 34,231.5C 35.7143,236.681 37.8809,241.681 40.5,246.5C 38.1629,247.517 36.4963,249.184 35.5,251.5C 37.0778,252.072 38.5778,252.406 40,252.5C 40.6667,251.833 41.3333,251.167 42,250.5C 44.4073,254.452 45.7406,258.785 46,263.5C 46.2492,262.376 46.7492,261.376 47.5,260.5C 48.5695,261.91 49.9028,262.91 51.5,263.5 Z"/></g>
<g><path style="opacity:1" fill="#676c6d" d="M 262.5,287.5 C 268.016,287.473 269.349,289.64 266.5,294C 261.57,294.427 260.237,292.26 262.5,287.5 Z"/></g>
<g><path style="opacity:1" fill="#686a6b" d="M 92.5,287.5 C 97.3276,287.385 98.6609,289.552 96.5,294C 90.7377,294.418 89.4044,292.251 92.5,287.5 Z"/></g>
<g><path style="opacity:1" fill="#69696c" d="M 137.5,275.5 C 143.66,275.331 148.993,277.331 153.5,281.5C 152.833,282.833 151.833,283.833 150.5,284.5C 147.563,282.187 144.23,280.854 140.5,280.5C 140.281,281.675 140.614,282.675 141.5,283.5C 144.77,285.267 147.603,287.6 150,290.5C 151.041,293.636 150.207,296.136 147.5,298C 140.451,299.483 134.451,297.65 129.5,292.5C 130.167,291.167 131.167,290.167 132.5,289.5C 135.445,291.556 138.612,293.223 142,294.5C 143.059,294.37 143.892,293.87 144.5,293C 141.01,290.509 137.843,287.675 135,284.5C 133.927,280.9 134.76,277.9 137.5,275.5 Z"/></g>
<g><path style="opacity:1" fill="#69696c" d="M 250.5,295.5 C 256.016,295.473 257.349,297.64 254.5,302C 249.57,302.427 248.237,300.26 250.5,295.5 Z"/></g>
<g><path style="opacity:1" fill="#6a6a6b" d="M 103.5,295.5 C 109.016,295.473 110.349,297.64 107.5,302C 102.57,302.427 101.237,300.26 103.5,295.5 Z"/></g>
<g><path style="opacity:1" fill="#6b6a6d" d="M 115.5,302.5 C 121.555,301.942 122.888,304.109 119.5,309C 114.791,309.082 113.458,306.915 115.5,302.5 Z"/></g>
<g><path style="opacity:1" fill="#6f6e71" d="M 238.5,302.5 C 244.016,302.473 245.349,304.64 242.5,309C 237.57,309.427 236.237,307.26 238.5,302.5 Z"/></g>
<g><path style="opacity:1" fill="#cf3238" d="M 302.5,306.5 C 297.277,311.949 290.944,315.616 283.5,317.5C 283.281,316.325 283.614,315.325 284.5,314.5C 287.276,312.87 290.276,312.203 293.5,312.5C 293.859,310.234 293.192,308.401 291.5,307C 292.711,305.422 294.045,305.255 295.5,306.5C 295.291,307.086 294.957,307.586 294.5,308C 295.793,308.49 297.127,308.657 298.5,308.5C 298.351,307.448 298.517,306.448 299,305.5C 300.011,306.337 301.178,306.67 302.5,306.5 Z"/></g>
<g><path style="opacity:1" fill="#6a696d" d="M 129.5,307.5 C 133.976,307.8 135.31,309.967 133.5,314C 127.339,314.878 126.006,312.711 129.5,307.5 Z"/></g>
<g><path style="opacity:1" fill="#6f6f71" d="M 225.5,307.5 C 231.016,307.473 232.349,309.64 229.5,314C 223.738,314.418 222.404,312.251 225.5,307.5 Z"/></g>
<g><path style="opacity:1" fill="#ca3b40" d="M 64.5,312.5 C 68.585,314.358 72.9183,315.525 77.5,316C 79.5695,318.278 81.9029,320.111 84.5,321.5C 77.2597,319.542 70.593,316.542 64.5,312.5 Z"/></g>
<g><path style="opacity:1" fill="#67676a" d="M 142.5,311.5 C 147.328,311.385 148.661,313.552 146.5,318C 141.57,318.427 140.237,316.26 142.5,311.5 Z"/></g>
<g><path style="opacity:1" fill="#68686a" d="M 198.5,314.5 C 203.328,314.385 204.661,316.552 202.5,321C 196.738,321.418 195.404,319.251 198.5,314.5 Z"/></g>
<g><path style="opacity:1" fill="#6a6a6c" d="M 212.5,311.5 C 216.976,311.8 218.31,313.967 216.5,318C 210.339,318.878 209.006,316.711 212.5,311.5 Z"/></g>
<g><path style="opacity:1" fill="#68686b" d="M 156.5,314.5 C 161.328,314.385 162.661,316.552 160.5,321C 154.738,321.418 153.404,319.251 156.5,314.5 Z"/></g>
<g><path style="opacity:1" fill="#6c6d6e" d="M 184.5,315.5 C 188.935,315.752 190.268,317.919 188.5,322C 182.339,322.878 181.006,320.711 184.5,315.5 Z"/></g>
<g><path style="opacity:1" fill="#696a6d" d="M 170.5,315.5 C 174.976,315.8 176.31,317.967 174.5,322C 168.339,322.878 167.006,320.711 170.5,315.5 Z"/></g>
<g><path style="opacity:1" fill="#cd363b" d="M 85.5,321.5 C 91.1445,322.127 96.8112,322.627 102.5,323C 107.569,325.799 112.902,327.799 118.5,329C 119.381,329.708 120.047,330.542 120.5,331.5C 108.701,328.303 97.034,324.97 85.5,321.5 Z"/></g>
<g><path style="opacity:1" fill="#fddee2" d="M 135.5,324.5 C 141.003,324.54 146.336,325.374 151.5,327C 153.437,327.122 154.77,327.955 155.5,329.5C 148.493,328.748 141.827,327.082 135.5,324.5 Z"/></g>
<g><path style="opacity:1" fill="#cf2f34" d="M 246.5,316.5 C 242.429,318.713 238.429,321.213 234.5,324C 232.167,324.333 229.833,324.667 227.5,325C 228.308,326.706 229.641,327.539 231.5,327.5C 231.5,328.833 231.5,330.167 231.5,331.5C 238.958,329.018 246.624,327.351 254.5,326.5C 250.364,327.927 246.031,329.093 241.5,330C 237.284,333.056 232.951,335.889 228.5,338.5C 228.594,335.932 229.928,334.432 232.5,334C 230.783,332.441 228.783,331.608 226.5,331.5C 226.579,330.07 226.246,328.736 225.5,327.5C 223.257,326.526 220.924,326.192 218.5,326.5C 227.808,323.395 237.141,320.062 246.5,316.5 Z"/></g>
<g><path style="opacity:1" fill="#cd2f35" d="M 105.5,312.5 C 114.949,317.872 124.949,321.872 135.5,324.5C 141.827,327.082 148.493,328.748 155.5,329.5C 167.434,331.331 179.434,331.831 191.5,331C 200.51,329.498 209.51,327.998 218.5,326.5C 217.517,327.85 216.184,328.85 214.5,329.5C 191.97,332.997 169.304,333.497 146.5,331C 145.416,328.175 144.249,328.008 143,330.5C 136.07,328.415 133.404,331.082 135,338.5C 137.417,340.042 139.917,341.542 142.5,343C 143.252,343.671 143.586,344.504 143.5,345.5C 135.325,341.583 127.659,336.917 120.5,331.5C 121.873,331.343 123.207,331.51 124.5,332C 126.034,334.381 128.034,334.881 130.5,333.5C 129.263,332.719 128.263,331.719 127.5,330.5C 129.167,329.833 130.833,329.167 132.5,328.5C 130.983,326.815 129.316,325.315 127.5,324C 124.344,324.188 121.178,324.355 118,324.5C 116.113,324.031 114.613,323.031 113.5,321.5C 112.549,322.326 111.549,322.492 110.5,322C 111.406,320.301 111.739,318.467 111.5,316.5C 108.663,316.316 106.663,314.982 105.5,312.5 Z"/></g>
<g><path style="opacity:1" fill="#d92129" d="M 218.5,326.5 C 220.924,326.192 223.257,326.526 225.5,327.5C 226.246,328.736 226.579,330.07 226.5,331.5C 228.783,331.608 230.783,332.441 232.5,334C 229.928,334.432 228.594,335.932 228.5,338.5C 217.232,345.467 205.232,350.8 192.5,354.5C 185.51,354.999 178.51,355.332 171.5,355.5C 170.5,355.5 169.5,355.5 168.5,355.5C 167.909,354.849 167.243,354.182 166.5,353.5C 163.444,352.804 160.444,351.97 157.5,351C 156.657,349.213 156.49,347.38 157,345.5C 152.556,346.586 148.056,346.586 143.5,345.5C 143.586,344.504 143.252,343.671 142.5,343C 139.917,341.542 137.417,340.042 135,338.5C 133.404,331.082 136.07,328.415 143,330.5C 144.249,328.008 145.416,328.175 146.5,331C 169.304,333.497 191.97,332.997 214.5,329.5C 216.184,328.85 217.517,327.85 218.5,326.5 Z"/></g>
<g><path style="opacity:1" fill="#d13138" d="M 143.5,345.5 C 148.056,346.586 152.556,346.586 157,345.5C 156.49,347.38 156.657,349.213 157.5,351C 160.444,351.97 163.444,352.804 166.5,353.5C 167.243,354.182 167.909,354.849 168.5,355.5C 168.167,355.5 167.833,355.5 167.5,355.5C 158.734,353.777 150.734,350.444 143.5,345.5 Z"/></g>
<g><path style="opacity:1" fill="#bb3e44" d="M 192.5,354.5 C 185.55,356.42 178.55,356.753 171.5,355.5C 178.51,355.332 185.51,354.999 192.5,354.5 Z"/></g>
</svg>
